<svg xmlns="http://www.w3.org/2000/svg" xmlns:xlink="http://www.w3.org/1999/xlink" viewBox="0 0 863.86 833.04"><defs><style>.cls-1{fill:#edb08e;}.cls-2{isolation:isolate;}.cls-3{fill:#bfe5fc;}.cls-4{fill:#f15a24;}.cls-5{font-size:97.19px;font-family:DreamMMA, Dream MMA;}.cls-5,.cls-8{fill:#fff;}.cls-18,.cls-19,.cls-6{opacity:0.1;}.cls-6{mix-blend-mode:multiply;}.cls-7{fill:#3b9ae0;}.cls-9{fill:#b3b3b3;}.cls-10{fill:#d6d6d6;}.cls-11{fill:#ccc;}.cls-12{fill:none;stroke:#39b54a;stroke-linecap:round;stroke-linejoin:round;stroke-width:5.79px;}.cls-13{font-size:21.05px;fill:gray;font-family:Montserrat-Bold, Montserrat Bold;font-weight:700;letter-spacing:-0.01em;}.cls-14{letter-spacing:-0.03em;}.cls-15{letter-spacing:0.02em;}.cls-16{fill:#d89371;}.cls-17{clip-path:url(#clip-path);}.cls-20{fill:#7f7f7f;}.cls-21{fill:#666;}.cls-22{fill:#fbb03b;}.cls-23{fill:#4ad89b;}</style><clipPath id="clip-path" transform="translate(96.86 65.97)"><path class="cls-1" d="M411.22,475.09s19-16.25,22.87-23.22S457,405,465.87,403s36.83,20.15,48.45,26.74,44.58-1.12,53.11,9.33,23.64,36.8,37.6,65.48,22.48,59.7,30.62,74,18.6,30.23,42.64,64.34,83,124,83,124H624.41s-34.5-103.49-53.49-131-31.79-27.14-47.68-32.18S469.12,584,448.7,561s-28-9.09-38.1-30.78c-5.11-11,9.33-12.77,4.68-28.38s22.25-16.26,29.92-8.45c3.54,3.62,9.16,8.88,5.62,23.16,0,0,13.84-.68,20.06,5.91,0,0,8.17-1.24,14.76,1.71,0,0,19.77-16.44,19.38-34.27s-5.44-26.31-34.14-39.92c0,0-10.32,13.57-18.13,14.34,0,0-10.37,11.35-15.58,14.88S415.87,488.23,411.22,475.09Z"/></clipPath></defs><title>ActNew</title><g class="cls-2"><g id="Capa_3" data-name="Capa 3"><rect class="cls-3" x="99.86" y="68.97" width="764" height="764.08" rx="83.64"/></g><g id="Capa_1" data-name="Capa 1"><circle class="cls-4" cx="99.97" cy="99.97" r="99.97"/><text class="cls-5" transform="translate(44.71 132.92)">2</text><rect class="cls-6" x="314.65" y="221.83" width="331.43" height="470.76" rx="20.79"/><rect class="cls-7" x="314.65" y="212.76" width="331.43" height="470.76" rx="20.79"/><rect class="cls-8" x="337.39" y="229.76" width="293.05" height="436.76"/><rect class="cls-9" x="419.77" y="308.34" width="177.94" height="14.73"/><rect class="cls-10" x="419.77" y="335.11" width="177.94" height="14.73"/><rect class="cls-10" x="361.48" y="361.87" width="236.24" height="14.73"/><path class="cls-10" d="M323,163.8a7.58,7.58,0,0,0,7.57,7.42H436.39A7.58,7.58,0,0,0,444,163.8Z" transform="translate(96.86 65.97)"/><path class="cls-10" d="M436.39,126.4H399.85a16.35,16.35,0,1,0-32.7,0H330.61A7.58,7.58,0,0,0,323,134v25.63a7.58,7.58,0,0,0,7.58,7.58H436.39a7.58,7.58,0,0,0,7.58-7.58V134A7.58,7.58,0,0,0,436.39,126.4Zm-52.89,6.42a6.43,6.43,0,1,1,6.43-6.42A6.42,6.42,0,0,1,383.5,132.82Z" transform="translate(96.86 65.97)"/><path class="cls-11" d="M323,152.83v6.78a7.58,7.58,0,0,0,7.58,7.58H436.39a7.58,7.58,0,0,0,7.58-7.58v-6.78Z" transform="translate(96.86 65.97)"/><rect class="cls-9" x="419.77" y="401.35" width="177.94" height="14.73"/><rect class="cls-10" x="419.77" y="428.12" width="177.94" height="14.73"/><rect class="cls-10" x="361.48" y="454.89" width="236.24" height="14.73"/><rect class="cls-10" x="361.48" y="571.1" width="105.08" height="14.73"/><rect class="cls-10" x="361.48" y="596.94" width="57.53" height="14.73"/><rect class="cls-10" x="493.08" y="571.1" width="105.08" height="14.73"/><rect class="cls-10" x="493.08" y="596.94" width="57.52" height="14.73"/><path class="cls-10" d="M304.62,340.39v31.49h-35V340.39h35m5-5h-45v41.49h45V335.39Z" transform="translate(96.86 65.97)"/><rect class="cls-9" x="361.48" y="494.37" width="236.24" height="14.48"/><path class="cls-12" d="M287,270.37" transform="translate(96.86 65.97)"/><path class="cls-12" d="M313.56,243.83" transform="translate(96.86 65.97)"/><polyline class="cls-12" points="410.43 401.35 383.89 427.89 370.06 414.05"/><text class="cls-13" transform="translate(383.68 281.56)"><tspan xml:space="preserve">             </tspan><tspan class="cls-14" x="54.99" y="0">A</tspan><tspan class="cls-15" x="67.33" y="0">C</tspan><tspan x="79.89" y="0">TIVITIES</tspan></text><path class="cls-6" d="M459.4,604.57h0l.21.17c.66.53,1.33,1.06,2,1.58l.79.6c.49.38,1,.75,1.48,1.11l.9.67,1.43,1,.93.65,1.5,1c.29.2.58.4.88.59.59.4,1.19.79,1.79,1.18l.6.38c.79.51,1.59,1,2.39,1.5l.76.46c.56.34,1.12.68,1.69,1l1,.56,1.51.88,1,.56,1.52.85,1,.53,1.66.89.8.43,2.43,1.26.51.25,1.95,1,.89.43,1.55.75,1,.46,1.48.7,1,.44,1.53.69.84.38,2,.86.36.17,2.27,1,.74.3,1.52.64.83.34,1.37.55.84.33,1.34.53.77.3,1.49.57.53.2,2,.72.42.16,1.44.52.68.24,1.12.39.67.23,1,.36.62.21,1.08.35.46.16,1.45.46c15.89,5,28.68,4.63,47.68,32C583,686.52,601.27,734.36,613,767H739.72c-19.32-29.11-46.82-70.28-61.43-90.92-24-34-34.5-49.77-42.64-64.05-5-8.72-10.1-23.66-16.52-40.47.08-.23.16-.47.22-.71,1.15-4.26-.77-8.45-4.26-9.62-3-7.56-6.36-15.3-10.06-22.88-14-28.55-29.07-54.79-37.6-65.19-5.3-6.46-20-5.94-33.22-6.19H534c-1.19,0-2.36,0-3.52-.1h-.4l-1.49-.07-.41,0-1.54-.1-.3,0-1.45-.13-.35,0-1.22-.14-.5,0-1.2-.18-.45-.07-1.07-.2-.5-.1c-.34-.07-.67-.16-1-.24l-.47-.12c-.3-.08-.59-.18-.88-.27l-.5-.15-.69-.27-.58-.23c-.4-.18-.78-.37-1.15-.57l-1.12-.66c-.17-.09-.34-.2-.51-.31l-.7-.42-.66-.41-.64-.4-.81-.52-.55-.35-.89-.58-.55-.36-1-.67c-.15-.11-.31-.21-.47-.31l-1.17-.79-.37-.24-1.54-1c-13.2-8.87-30.72-21-37.45-19.56-8.91,1.92-27.91,41.66-31.78,48.61-2.75,4.92-13.09,14.47-18.88,19.62a2,2,0,0,0-.68.6c-1.07.95-1.94,1.71-2.52,2.21l-12.56-1.41a9.28,9.28,0,0,0-3.32-.3,4.09,4.09,0,0,0-1.82.67,3.65,3.65,0,0,0-.74.68s-.06.1-.1.14l-4.08-.45c-1-.26-1.94-.16-2.26,1.05s.41,1.74,1.43,2l3.76,1.65c.29,2.17,2.16,3.32,4.57,4l13.17,5.76-.46,1.7a1.85,1.85,0,0,0,1.11,2.35l4,1.06a1.73,1.73,0,0,0,1.91-1l.53.15c-2.12,2.14-3,5.14-1.82,9.14,4.65,15.54-9.79,17.34-4.68,28.24,10.13,21.6,17.67,7.72,38.1,30.64a92.2,92.2,0,0,0,10.7,10.12ZM438.18,512.3c.84-.63,1.76-1.41,2.73-2.26a12.47,12.47,0,0,0,2.15,3.47Zm51.62,5.19c3.17-2.13,8.25-7.14,11.74-10.75.38.73.72,1.48,1,2.24-5.55,6.59-12.08,13.23-12.08,13.23a15,15,0,0,0,1.47,3.41l-15.85-3.92A27.57,27.57,0,0,0,489.8,517.49Zm-25.54-3a11.55,11.55,0,0,0,4.56,5.43L456.94,517A29.74,29.74,0,0,0,464.26,514.46Zm-13.44,35.75c1.53-6.13,1.35-10.58.37-14l43.23,12.45a74.25,74.25,0,0,1-8.41,8.77l0,0-.25.21h0l-.09.08h0c-.42-.19-.84-.36-1.27-.51l-.45-.15c-.29-.09-.58-.19-.88-.27l-.52-.14-.82-.2-.52-.11-.82-.15-.48-.07-.85-.12-.4,0-.92-.09-.28,0-1,0h-.16c-.37,0-.72,0-1.07,0h0a31.85,31.85,0,0,0-4.3.25C464.66,549.53,450.82,550.21,450.82,550.21Z" transform="translate(96.86 65.97)"/><path class="cls-16" d="M500.13,450.82v-9.94h-30.4c-3.4,5.53-5.34,9.38-6.31,11.13-3.88,7-22.87,23.23-22.87,23.23,4.65,13.14,20.74,7.59,25.95,4.06s15.58-14.88,15.58-14.88C482.58,464.37,505.88,448.28,500.13,450.82Z" transform="translate(96.86 65.97)"/><path class="cls-16" d="M523.44,455.15V440.88H495.79c-5.16,7.87-7.85,13.28-9.06,15.47-3.88,7-22.87,23.22-22.87,23.22,4.65,13.14,20.73,7.59,25.94,4.06s15.59-14.88,15.59-14.88C505.89,468.7,529.19,452.61,523.44,455.15Z" transform="translate(96.86 65.97)"/><path class="cls-16" d="M540.41,464V440.88h-18a193.38,193.38,0,0,0-12.73,24.27c-3.25,7-19.16,23.22-19.16,23.22,3.9,13.14,17.37,7.59,21.74,4.06s13-14.88,13-14.88C525.7,477.5,545.22,461.41,540.41,464Z" transform="translate(96.86 65.97)"/><path class="cls-1" d="M411.22,475.09s19-16.25,22.87-23.22S457,405,465.87,403s36.83,20.15,48.45,26.74,44.58-1.12,53.11,9.33,23.64,36.8,37.6,65.48,22.48,59.7,30.62,74,18.6,30.23,42.64,64.34,83,124,83,124H624.41s-34.5-103.49-53.49-131-31.79-27.14-47.68-32.18S469.12,584,448.7,561s-28-9.09-38.1-30.78c-5.11-11,9.33-12.77,4.68-28.38s22.25-16.26,29.92-8.45c3.54,3.62,9.16,8.88,5.62,23.16,0,0,13.84-.68,20.06,5.91,0,0,8.17-1.24,14.76,1.71,0,0,19.77-16.44,19.38-34.27s-5.44-26.31-34.14-39.92c0,0-10.32,13.57-18.13,14.34,0,0-10.37,11.35-15.58,14.88S415.87,488.23,411.22,475.09Z" transform="translate(96.86 65.97)"/><g class="cls-17"><path class="cls-18" d="M609.21,542.74l-12.05-3.83-.15-.49-.16-.46c-.08-.22-.16-.44-.25-.65a5.11,5.11,0,0,0-.22-.48c-.09-.2-.17-.39-.27-.58s-.36-.65-.56-1l-.28-.39c-.13-.19-.27-.38-.41-.55a4,4,0,0,0-.32-.38c-.15-.17-.29-.34-.45-.49s-.23-.23-.36-.35l-.5-.44-.38-.3a5.72,5.72,0,0,0-.57-.39c-.12-.09-.25-.17-.38-.25s-.45-.25-.68-.36l-.35-.17a9.66,9.66,0,0,0-1.1-.43L503.1,503.24a2.15,2.15,0,0,0-1.33-2.26l-5.34-1.81a2.2,2.2,0,0,0-2.54,1.15l-96.07-30.54a1.93,1.93,0,0,0-1.17-2.09l-4.32-1.47a2.07,2.07,0,0,0-2.49,1.51l-.64,1.87-15.81-2.81c-2.17-.69-4.2-.89-5.76,0a4.67,4.67,0,0,0-1,.86l-4.51-.8c-1.13-.36-2.15-.31-2.6,1s.34,2,1.45,2.38l4.07,2.11c.17,2.45,2.17,3.88,4.8,4.82l14.27,7.38-.64,1.88a2.09,2.09,0,0,0,1.07,2.71l4.32,1.46a2,2,0,0,0,2.22-.94l94.83,34.14a2.2,2.2,0,0,0,1.32,2.45l5.34,1.81a2.16,2.16,0,0,0,2.43-1l85.57,30.8a11.46,11.46,0,0,0,10.8-2l3.41,1.23h0l8.49,3.06c4.11,1.47,8.83-1.32,10.48-6.21S613.37,544.06,609.21,542.74Z" transform="translate(96.86 65.97)"/></g><g class="cls-19"><path d="M529.47,595.16c-9.29-3.18-40.11-14-70.07-24,21.1,17.24,50.43,28.44,63.84,32.69,15.89,5,28.68,4.65,47.68,32.18s53.49,131,53.49,131h10s-38.3-107.5-57.29-137.17S545.36,600.59,529.47,595.16Z" transform="translate(96.86 65.97)"/></g><path class="cls-20" d="M604.46,542.43l18.32,5.3c4.19,1.22,8.72-1.87,10.07-6.86s-1-9.93-5.27-11l-18.51-4.6Z" transform="translate(96.86 65.97)"/><path class="cls-20" d="M604.46,542.43l18.32,5.3c4.19,1.22,8.72-1.87,10.07-6.86s-1-9.93-5.27-11l-18.51-4.6Z" transform="translate(96.86 65.97)"/><path class="cls-20" d="M604.46,542.43l18.32,5.3c4.19,1.22,8.72-1.87,10.07-6.86s-1-9.93-5.27-11l-18.51-4.6Z" transform="translate(96.86 65.97)"/><path class="cls-21" d="M619.12,537.18a15.92,15.92,0,0,0-.29-9.48l-9.76-2.42-4.61,17.15,9.65,2.8A15.93,15.93,0,0,0,619.12,537.18Z" transform="translate(96.86 65.97)"/><path class="cls-20" d="M375.23,473.44l5.36,2.35,1.39-5.16-5.82-.65c-1.15-.29-2.16-.18-2.53,1.17S374.09,473.11,375.23,473.44Z" transform="translate(96.86 65.97)"/><path class="cls-20" d="M384.53,479.79,401,487l4.26-15.86-17.88-2c-3.53-.88-6.64-.53-7.76,3.62S381,478.78,384.53,479.79Z" transform="translate(96.86 65.97)"/><path class="cls-21" d="M402.87,480.08l2.4-8.92-17.88-2c-3.53-.88-6.64-.53-7.76,3.62a8.12,8.12,0,0,0-.18,1Z" transform="translate(96.86 65.97)"/><path class="cls-20" d="M404,490.15l196,56.71c6.5,1.88,13.52-2.91,15.6-10.63s-1.6-15.39-8.16-17l-198-49.27Z" transform="translate(96.86 65.97)"/><path class="cls-21" d="M616.1,533.14c.51-6.58-3-12.52-8.68-13.94l-198-49.27L407.49,477Z" transform="translate(96.86 65.97)"/><path class="cls-7" d="M535,514.57a3.67,3.67,0,0,0,2.52,4.47l63.85,18.47c2.23.64,4.64-1,5.36-3.65s-.55-5.29-2.81-5.85L539.46,512a3.67,3.67,0,0,0-4.42,2.61Z" transform="translate(96.86 65.97)"/><path class="cls-7" d="M512.25,493.6l5.45,1.47a2.33,2.33,0,0,1,1.38,2.94l-6.16,22.87a2.31,2.31,0,0,1-2.66,1.85l-5.45-1.46a2.31,2.31,0,0,1-1.38-2.94l6.15-22.88A2.31,2.31,0,0,1,512.25,493.6Z" transform="translate(96.86 65.97)"/><path class="cls-22" d="M406.26,467.37l4.4,1.19a2.07,2.07,0,0,1,1.24,2.64l-5.14,19.11a2.07,2.07,0,0,1-2.39,1.66L400,490.79a2.08,2.08,0,0,1-1.24-2.64L403.86,469A2.09,2.09,0,0,1,406.26,467.37Z" transform="translate(96.86 65.97)"/><path class="cls-1" d="M454.27,516.56c-2.07-.12-3.45-.06-3.45-.06,3.54-14.28-2.08-19.54-5.62-23.16-7.67-7.81-34.57-7.16-29.92,8.45s-9.79,17.42-4.68,28.38c10.13,21.69,17.67,7.75,38.1,30.78,1.73,1.95,3.61,3.84,5.57,5.67Z" transform="translate(96.86 65.97)"/><path class="cls-1" d="M454.27,415.4c-8.48,12.91-17.62,31.86-20.18,36.47-3.88,7-22.87,23.22-22.87,23.22,4.65,13.14,20.74,7.59,25.95,4.06s15.58-14.88,15.58-14.88a8.41,8.41,0,0,0,1.52-.32Z" transform="translate(96.86 65.97)"/><path class="cls-18" d="M503.32,422.69h0c.35.24,12.52,10.77,40.82,22.59S542,433,542,433h0c-10.75-.2-21.87.07-27.68-3.22C511.47,428.15,507.62,425.59,503.32,422.69Z" transform="translate(96.86 65.97)"/><path class="cls-18" d="M470.88,449.93a17.54,17.54,0,0,1-4.85-8.14s-.89,8.54,1.82,11.76Z" transform="translate(96.86 65.97)"/><path class="cls-18" d="M410.6,530.17s4.27-11.19,14.34-11c0,0-12.25,6.3-13.29,13.08Z" transform="translate(96.86 65.97)"/><path class="cls-7" d="M86.28,295.63,114.87,315c-22.67,90.86,23,138.62,93.51,166.74-29.66-22.81-52.76-83.9-38.69-129.67l28.59,19.33a7.8,7.8,0,0,0,12.09-7.56l-14.15-99.75a7.79,7.79,0,0,0-9.58-6.48l-97.85,24A7.8,7.8,0,0,0,86.28,295.63Z" transform="translate(96.86 65.97)"/><path class="cls-23" d="M114.16,427.27c-2.92,36.12,6.43,72.18,23,91,0,0,72.21,31.24,148.92-26.26C286.1,492,181.74,516,114.16,427.27Z" transform="translate(96.86 65.97)"/><path class="cls-7" d="M680.07,257.62l-28.59-19.34c22.67-90.85-23-138.61-93.51-166.74,29.66,22.82,52.76,83.91,38.69,129.68l-28.59-19.33a7.8,7.8,0,0,0-12.1,7.55l14.16,99.76a7.8,7.8,0,0,0,9.58,6.48l97.85-24A7.8,7.8,0,0,0,680.07,257.62Z" transform="translate(96.86 65.97)"/><path class="cls-23" d="M588.71,160.59c-5.35-32.43-21.85-63.39-41.11-78.21,0,0-72.62-19.49-129.67,40.39C417.93,122.77,507.57,89.53,588.71,160.59Z" transform="translate(96.86 65.97)"/><path class="cls-10" d="M310.88,247.37v31.5h-35v-31.5h35m5-5h-45v41.5h45v-41.5Z" transform="translate(96.86 65.97)"/><path class="cls-10" d="M310.88,454.1v31.5h-35V454.1h35m5-5h-45v41.5h45V449.1Z" transform="translate(96.86 65.97)"/><path class="cls-10" d="M364.69,454.1v31.5h-35V454.1h35m5-5h-45v41.5h45V449.1Z" transform="translate(96.86 65.97)"/><line class="cls-12" x1="419" y1="309.14" x2="392.47" y2="335.67"/><line class="cls-12" x1="390.44" y1="336.99" x2="376.6" y2="323.15"/><line class="cls-12" x1="406.68" y1="520.38" x2="387.84" y2="539.22"/><line class="cls-12" x1="386.05" y1="540.3" x2="378.27" y2="532.51"/><line class="cls-12" x1="462.61" y1="520.38" x2="443.77" y2="539.22"/><line class="cls-12" x1="441.99" y1="540.3" x2="434.2" y2="532.51"/></g></g></svg>