<svg id="Capa_1" data-name="Capa 1" xmlns="http://www.w3.org/2000/svg" viewBox="0 0 617 434.99"><defs><style>.cls-1{fill:#303030;}.cls-2{fill:#f6f6f6;}.cls-3{fill:#e3b6b8;}.cls-4{fill:#b8b8b8;}.cls-5{fill:#fff;}.cls-6{fill:#a0ccd1;}</style></defs><title>Ballena</title><path class="cls-1" d="M726.12,444.19q3,4.33,5.83,8.77c-8.46-37.88,45.46-75.68,57.11-83.71s5.57-14.28-8-16.73c-68.08-12.3-115.3,34.87-115.3,34.87a.15.15,0,0,0,0,.05C690.46,403.21,711.13,422.45,726.12,444.19Z" transform="translate(-304 -342.29)"/><path class="cls-1" d="M516.1,632.27c-8.64-11.28-9.61-22-8-30.41-23.93-1.42-47.87-5-70.91-12.27,1.45,21.27,9.59,46.34,35.7,63.66C526.84,689.05,535.58,657.68,516.1,632.27Z" transform="translate(-304 -342.29)"/><path class="cls-1" d="M484.37,343c-83.67,5.65-130.28,45.85-149.89,71h0s-23.43,3.93-28.7,18.95,1.84,27.09,12.83,36h0c1.79,22.14,12.31,50.82,45.69,80.13C435.14,611.25,530.41,605,608.68,599s142.46,9.19,164.44,23.4,36.1,6.63,36.1,6.63C765.63,707.74,827,777.28,827,777.28c-6.09-13,9-39.9,26.9-68s.64-72.8.64-72.8c53.48-.37,55-68.77,53.77-85.11S921,519,921,519c-65.19-5.17-86.64,65.51-86.64,65.51-46.64,9.25-63.36-75.23-108.24-140.27S585.68,336.16,484.37,343" transform="translate(-304 -342.29)"/><path class="cls-2" d="M741.83,592.7c-40.9-17.4-182.74-14.6-292.61-38.16C362.85,536,330.15,491,320.1,472.64l-1.49-3.7-7.56-7.5c-3.46,20.49,5.52,27,11.61,29,5.73,18,17.89,38.45,41.53,59.2C435,611.86,530.3,605.6,608.56,599.61S751,608.8,773,623s36.09,6.62,36.09,6.62S782.73,610.1,741.83,592.7Z" transform="translate(-304 -342.29)"/><path class="cls-2" d="M537.19,493.84c-3.47,18.91-37.38,28.54-75.73,21.5s-66.65-28.08-63.17-47,37.38-28.55,75.74-21.5S540.67,474.92,537.19,493.84Z" transform="translate(-304 -342.29)"/><path class="cls-3" d="M469.2,496.61c-.41,5.62-8.28,9.63-17.57,8.95s-16.48-5.8-16.07-11.42,8.28-9.64,17.57-8.95S469.62,491,469.2,496.61Z" transform="translate(-304 -342.29)"/><path class="cls-4" d="M451.17,475.76a15.86,15.86,0,1,1-12.74-18.45A15.86,15.86,0,0,1,451.17,475.76Z" transform="translate(-304 -342.29)"/><path d="M446.59,474.93a11.2,11.2,0,1,1-9-13.05A11.21,11.21,0,0,1,446.59,474.93Z" transform="translate(-304 -342.29)"/><path class="cls-5" d="M444,470.62a4.18,4.18,0,1,1-3.36-4.87A4.19,4.19,0,0,1,444,470.62Z" transform="translate(-304 -342.29)"/><path class="cls-5" d="M429.82,477a1.41,1.41,0,1,1-1.13-1.64A1.42,1.42,0,0,1,429.82,477Z" transform="translate(-304 -342.29)"/><path class="cls-1" d="M655.26,618.85c-38.84-27-21.66-67.54-21.59-67.68-7.13.26-14.37.65-21.73,1.21-30.83,2.36-63.9,4.75-97.39,4.15,5.15,33,23.54,92.72,89.15,111.38C696,694.15,694.18,646,655.26,618.85Z" transform="translate(-304 -342.29)"/><ellipse class="cls-6" cx="276.83" cy="395.47" rx="188.25" ry="39.52"/></svg>