<svg xmlns="http://www.w3.org/2000/svg" xmlns:xlink="http://www.w3.org/1999/xlink" viewBox="0 0 1366 777"><defs><linearGradient id="linear-gradient" x1="683" x2="683" y2="777" gradientUnits="userSpaceOnUse"><stop offset="0" stop-color="#fff"/><stop offset="0.11" stop-color="#fbfefe" stop-opacity="0.99"/><stop offset="0.24" stop-color="#eefafd" stop-opacity="0.95"/><stop offset="0.38" stop-color="#d9f4fa" stop-opacity="0.89"/><stop offset="0.52" stop-color="#bcecf6" stop-opacity="0.81"/><stop offset="0.67" stop-color="#97e2f1" stop-opacity="0.71"/><stop offset="0.82" stop-color="#69d5eb" stop-opacity="0.58"/><stop offset="0.97" stop-color="#34c6e3" stop-opacity="0.43"/><stop offset="1" stop-color="#29c3e2" stop-opacity="0.4"/></linearGradient><linearGradient id="linear-gradient-2" x1="1088" y1="349.5" x2="1088" y2="349.5" xlink:href="#linear-gradient"/><linearGradient id="linear-gradient-3" x1="1088" y1="292" x2="1158" y2="292" xlink:href="#linear-gradient"/><linearGradient id="linear-gradient-4" x1="125" y1="110.5" x2="160" y2="110.5" xlink:href="#linear-gradient"/><linearGradient id="linear-gradient-5" x1="236" y1="169.5" x2="271" y2="169.5" xlink:href="#linear-gradient"/><linearGradient id="linear-gradient-6" x1="786" y1="92.5" x2="821" y2="92.5" xlink:href="#linear-gradient"/><linearGradient id="linear-gradient-7" x1="639" y1="110.5" x2="674" y2="110.5" xlink:href="#linear-gradient"/><linearGradient id="linear-gradient-8" x1="683" y1="150" x2="713" y2="150" xlink:href="#linear-gradient"/><linearGradient id="linear-gradient-9" x1="236" y1="118.5" x2="253" y2="118.5" xlink:href="#linear-gradient"/><linearGradient id="linear-gradient-10" x1="314" y1="88" x2="340" y2="88" xlink:href="#linear-gradient"/><linearGradient id="linear-gradient-11" x1="427" y1="128" x2="453" y2="128" xlink:href="#linear-gradient"/><linearGradient id="linear-gradient-12" x1="440" y1="212" x2="466" y2="212" xlink:href="#linear-gradient"/><linearGradient id="linear-gradient-13" x1="178" y1="169.5" x2="195" y2="169.5" xlink:href="#linear-gradient"/><linearGradient id="linear-gradient-14" x1="805" y1="638.51" x2="831.13" y2="638.51" xlink:href="#linear-gradient"/><linearGradient id="linear-gradient-15" x1="887.88" y1="682.56" x2="914.01" y2="682.56" xlink:href="#linear-gradient"/><linearGradient id="linear-gradient-16" x1="1298.55" y1="625.07" x2="1324.68" y2="625.07" xlink:href="#linear-gradient"/><linearGradient id="linear-gradient-17" x1="1188.79" y1="638.51" x2="1214.92" y2="638.51" xlink:href="#linear-gradient"/><linearGradient id="linear-gradient-18" x1="1221.64" y1="668" x2="1244.04" y2="668" xlink:href="#linear-gradient"/><linearGradient id="linear-gradient-19" x1="887.88" y1="644.48" x2="900.57" y2="644.48" xlink:href="#linear-gradient"/><linearGradient id="linear-gradient-20" x1="946.12" y1="621.71" x2="965.53" y2="621.71" xlink:href="#linear-gradient"/><linearGradient id="linear-gradient-21" x1="1030.49" y1="651.57" x2="1049.91" y2="651.57" xlink:href="#linear-gradient"/><linearGradient id="linear-gradient-22" x1="1040.2" y1="714.29" x2="1059.61" y2="714.29" xlink:href="#linear-gradient"/><linearGradient id="linear-gradient-23" x1="844.57" y1="682.56" x2="857.27" y2="682.56" xlink:href="#linear-gradient"/><linearGradient id="linear-gradient-24" x1="259.5" y1="585" x2="259.5" xlink:href="#linear-gradient"/><linearGradient id="linear-gradient-25" x1="186.5" y1="317" x2="186.5" y2="508" xlink:href="#linear-gradient"/><linearGradient id="linear-gradient-26" x1="186.95" y1="508" x2="186.95" y2="612.92" xlink:href="#linear-gradient"/><linearGradient id="linear-gradient-27" x1="142" y1="385.5" x2="177" y2="385.5" xlink:href="#linear-gradient"/><linearGradient id="linear-gradient-28" x1="253" y1="444.5" x2="288" y2="444.5" xlink:href="#linear-gradient"/><linearGradient id="linear-gradient-29" x1="253" y1="393.5" x2="270" y2="393.5" xlink:href="#linear-gradient"/><linearGradient id="linear-gradient-30" x1="195" y1="444.5" x2="212" y2="444.5" xlink:href="#linear-gradient"/></defs><title>bg_levels</title><g id="Layer_2" data-name="Layer 2"><g id="Layer_1-2" data-name="Layer 1"><g opacity="0.56"><rect width="1366" height="777" fill="url(#linear-gradient)"/><path d="M563,777,766.77,563.41a78.49,78.49,0,0,1,100-11.38l43.45,28.6A78.47,78.47,0,0,0,1017,561l108.51-150.5a78.47,78.47,0,0,1,88-28.72l17.66,5.75A78.49,78.49,0,0,0,1323,352.78L1366,280V777Z" fill="#29c3e2" opacity="0.09"/><path d="M604,777,786.77,614.41a78.49,78.49,0,0,1,100-11.38l43.45,28.6A78.47,78.47,0,0,0,1037,612l108.51-150.5a78.47,78.47,0,0,1,88-28.72l17.66,5.75A78.49,78.49,0,0,0,1343,403.78L1366,331V777Z" fill="#29c3e2" opacity="0.09"/><g opacity="0.4"><line x1="1088" y1="465" x2="1088" y2="234" fill="url(#linear-gradient-2)"/><polygon points="1088 234 1088 350 1158 280 1088 234" fill="url(#linear-gradient-3)"/></g><g opacity="0.14"><circle cx="142.5" cy="110.5" r="17.5" fill="url(#linear-gradient-4)"/><circle cx="253.5" cy="169.5" r="17.5" fill="url(#linear-gradient-5)"/><circle cx="803.5" cy="92.5" r="17.5" fill="url(#linear-gradient-6)"/><circle cx="656.5" cy="110.5" r="17.5" fill="url(#linear-gradient-7)"/><circle cx="698" cy="150" r="15" fill="url(#linear-gradient-8)"/><circle cx="244.5" cy="118.5" r="8.5" fill="url(#linear-gradient-9)"/><circle cx="327" cy="88" r="13" fill="url(#linear-gradient-10)"/><circle cx="440" cy="128" r="13" fill="url(#linear-gradient-11)"/><circle cx="453" cy="212" r="13" fill="url(#linear-gradient-12)"/><circle cx="186.5" cy="169.5" r="8.5" fill="url(#linear-gradient-13)"/></g><g opacity="0.18"><circle cx="818.07" cy="638.51" r="13.07" fill="url(#linear-gradient-14)"/><circle cx="900.95" cy="682.56" r="13.07" fill="url(#linear-gradient-15)"/><circle cx="1311.61" cy="625.07" r="13.07" fill="url(#linear-gradient-16)"/><circle cx="1201.85" cy="638.51" r="13.07" fill="url(#linear-gradient-17)"/><circle cx="1232.84" cy="668" r="11.2" fill="url(#linear-gradient-18)"/><circle cx="894.23" cy="644.48" r="6.35" fill="url(#linear-gradient-19)"/><circle cx="955.83" cy="621.71" r="9.71" fill="url(#linear-gradient-20)"/><circle cx="1040.2" cy="651.57" r="9.71" fill="url(#linear-gradient-21)"/><circle cx="1049.91" cy="714.29" r="9.71" fill="url(#linear-gradient-22)"/><circle cx="850.92" cy="682.56" r="6.35" fill="url(#linear-gradient-23)"/></g><path d="M125,777V659a37,37,0,0,1,37-37h74a37,37,0,0,1,37-37h84a37,37,0,0,1,37,37V777" opacity="0.38" fill="url(#linear-gradient-24)"/><g opacity="0.24"><circle cx="186.5" cy="412.5" r="95.5" fill="url(#linear-gradient-25)"/><line x1="186.95" y1="612.92" x2="186.95" y2="508" fill="none" stroke-miterlimit="10" stroke-width="5" stroke="url(#linear-gradient-26)"/></g><g opacity="0.18"><circle cx="159.5" cy="385.5" r="17.5" fill="url(#linear-gradient-27)"/><circle cx="270.5" cy="444.5" r="17.5" fill="url(#linear-gradient-28)"/><circle cx="261.5" cy="393.5" r="8.5" fill="url(#linear-gradient-29)"/><circle cx="203.5" cy="444.5" r="8.5" fill="url(#linear-gradient-30)"/></g></g></g></g></svg>