<svg xmlns="http://www.w3.org/2000/svg" viewBox="0 0 852.86 833.97"><defs><style>.cls-1{isolation:isolate;}.cls-2{fill:#d7f8f9;}.cls-3{fill:#afe0de;}.cls-4{fill:#d6d8d8;}.cls-5{fill:#8fd3d5;}.cls-6,.cls-7{fill:#ed8b1b;}.cls-7{opacity:0.7;}.cls-7,.cls-9{mix-blend-mode:multiply;}.cls-8,.cls-9{fill:#187d87;}.cls-20,.cls-9{opacity:0.3;}.cls-10,.cls-11{fill:#edac2f;}.cls-11{opacity:0.5;mix-blend-mode:screen;}.cls-12{fill:#252533;}.cls-13,.cls-20,.cls-34{fill:#fff;}.cls-14{fill:#35354c;}.cls-15{fill:#ff4d27;}.cls-16{fill:#eeb684;}.cls-17{fill:#dc957b;}.cls-18{fill:#c42d27;}.cls-19{fill:#f3d46a;}.cls-21{fill:#da7d1d;}.cls-22{fill:#f6e6a4;}.cls-22,.cls-32{opacity:0.2;}.cls-23{fill:#133248;}.cls-24{fill:#fdb487;}.cls-25{fill:#011b2e;}.cls-26{fill:#4f8fed;}.cls-27{fill:#c1edf4;}.cls-28{fill:#f48568;}.cls-29{fill:#fdd462;}.cls-30{fill:#f37e00;}.cls-31{fill:#f7a219;}.cls-32{fill:#fbe6a1;}.cls-33{fill:#c1272d;}.cls-34{font-size:97.19px;font-family:DreamMMA, Dream MMA;}</style></defs><title>MoneyNew</title><g class="cls-1"><g id="Capa_3" data-name="Capa 3"><path class="cls-2" d="M143.78,67H747.47a105.4,105.4,0,0,1,105.4,105.4V624.25a0,0,0,0,1,0,0h-755a0,0,0,0,1,0,0V112.88A45.92,45.92,0,0,1,143.78,67Z"/><path class="cls-3" d="M97.47,625.29h755.4a0,0,0,0,1,0,0V729.6A104.37,104.37,0,0,1,748.5,834H200.87a103.4,103.4,0,0,1-103.4-103.4V625.29A0,0,0,0,1,97.47,625.29Z"/><path class="cls-3" d="M527.72,76.79A7.91,7.91,0,0,0,530,82.38a7.64,7.64,0,0,0,5.49,2.33H702.14a7.92,7.92,0,0,0,5.49-13.5,7.6,7.6,0,0,0-5.49-2.33h-7.88a20.16,20.16,0,0,0-33.06-6.39,28.1,28.1,0,0,0-24.32-14.13,27.71,27.71,0,0,0-8.19,1.23,32.08,32.08,0,0,0-59.57,6.61A20,20,0,0,0,560,54a20.36,20.36,0,0,0-19.51,14.86h-5A7.87,7.87,0,0,0,527.72,76.79Z" transform="translate(96.86 65.97)"/><path class="cls-3" d="M74.86,97.6a5.52,5.52,0,0,0,1.61,3.92,5.35,5.35,0,0,0,3.86,1.64H197.4a5.57,5.57,0,0,0,3.86-9.49A5.39,5.39,0,0,0,197.4,92h-5.53a14.17,14.17,0,0,0-23.23-4.49,19.77,19.77,0,0,0-17.09-9.93,19.52,19.52,0,0,0-5.75.87A22.53,22.53,0,0,0,104,83.13a14,14,0,0,0-6.39-1.53A14.31,14.31,0,0,0,83.85,92H80.33A5.53,5.53,0,0,0,74.86,97.6Z" transform="translate(96.86 65.97)"/><path class="cls-3" d="M756,184.52a22.26,22.26,0,0,0-12.7-4,22.72,22.72,0,0,0-21.84,16.87,14,14,0,0,0-6.39-1.54,14.29,14.29,0,0,0-13.7,10.45h-3.53a5.57,5.57,0,0,0-3.86,9.48,5.36,5.36,0,0,0,3.86,1.64H756Z" transform="translate(96.86 65.97)"/><path class="cls-3" d="M70.53,338.59A5.36,5.36,0,0,0,66.67,337H61.14a14.17,14.17,0,0,0-23.23-4.49,19.77,19.77,0,0,0-17.09-9.93,19.52,19.52,0,0,0-5.75.87A22.73,22.73,0,0,0,1,312v36.09H66.67a5.57,5.57,0,0,0,3.86-9.49Z" transform="translate(96.86 65.97)"/><path class="cls-3" d="M36.57,194.87a3.37,3.37,0,0,0,1,2.36,3.22,3.22,0,0,0,2.32,1h70.42a3.35,3.35,0,0,0,2.33-5.7,3.26,3.26,0,0,0-2.33-1H107a8.53,8.53,0,0,0-14-2.7,11.89,11.89,0,0,0-10.28-6,11.57,11.57,0,0,0-3.45.52,13.56,13.56,0,0,0-25.18,2.79A8.54,8.54,0,0,0,42,191.52H39.86A3.33,3.33,0,0,0,36.57,194.87Z" transform="translate(96.86 65.97)"/><path class="cls-3" d="M329.67,69.89a3.33,3.33,0,0,0,1,2.36,3.23,3.23,0,0,0,2.32,1h70.42a3.33,3.33,0,0,0,3.29-3.35,3.37,3.37,0,0,0-1-2.36,3.21,3.21,0,0,0-2.32-1h-3.33a8.52,8.52,0,0,0-14-2.7,11.89,11.89,0,0,0-10.28-6,11.69,11.69,0,0,0-3.46.52,13.55,13.55,0,0,0-25.17,2.79,8.43,8.43,0,0,0-3.84-.92,8.61,8.61,0,0,0-8.25,6.28H333A3.32,3.32,0,0,0,329.67,69.89Z" transform="translate(96.86 65.97)"/><path class="cls-3" d="M756,379.52a11.75,11.75,0,0,0-8-.41,13.56,13.56,0,0,0-25.18,2.79,8.37,8.37,0,0,0-3.84-.92,8.59,8.59,0,0,0-8.24,6.28h-2.12a3.32,3.32,0,0,0-3.29,3.34,3.37,3.37,0,0,0,1,2.37,3.21,3.21,0,0,0,2.32,1H756Z" transform="translate(96.86 65.97)"/><circle class="cls-3" cx="480.73" cy="429.27" r="242.29"/><path class="cls-4" d="M377.7,626.07a4.89,4.89,0,0,1,4.92-4.84h0a4.84,4.84,0,0,1,4.82,4.89h0a4.86,4.86,0,0,1-4.89,4.85h-.08A4.89,4.89,0,0,1,377.7,626.07ZM360.77,630a4.87,4.87,0,0,1-4.43-5.27h0a4.86,4.86,0,0,1,5.28-4.43h0a4.87,4.87,0,0,1,4.43,5.27h0A4.89,4.89,0,0,1,361.1,630h0C361,630,360.89,630,360.77,630Zm38.35-4.25a4.86,4.86,0,0,1,4.49-5.23h0a4.88,4.88,0,0,1,5.23,4.49h0a4.91,4.91,0,0,1-4.49,5.23h0c-.16,0-.32,0-.47,0h0A4.88,4.88,0,0,1,399.12,625.72Zm-60,1.51h0a4.88,4.88,0,0,1-4-5.62h0a4.86,4.86,0,0,1,5.61-4h0a4.85,4.85,0,0,1,4,5.61h0a4.87,4.87,0,0,1-4.89,4h0A5.55,5.55,0,0,1,339.15,627.23Zm81.28-3.61a4.89,4.89,0,0,1,4-5.58h0a4.9,4.9,0,0,1,5.59,4.05h0a4.89,4.89,0,0,1-4.05,5.58h0v0h0a3.63,3.63,0,0,1-.86.06h0A4.85,4.85,0,0,1,420.43,623.62Zm-102.61-.92a4.85,4.85,0,0,1-3.52-5.92h0a4.84,4.84,0,0,1,5.91-3.5h0a4.85,4.85,0,0,1,3.52,5.92h0a4.89,4.89,0,0,1-4.81,3.66h0A4.57,4.57,0,0,1,317.82,622.7Zm123.67-2.91a4.86,4.86,0,0,1,3.57-5.88h0a4.85,4.85,0,0,1,5.87,3.56h0a4.86,4.86,0,0,1-3.57,5.89h0a4.43,4.43,0,0,1-1.25.13h0A4.88,4.88,0,0,1,441.49,619.79Zm-144.58-3.33h0a4.88,4.88,0,0,1-3-6.2h0a4.88,4.88,0,0,1,6.2-3h0a4.89,4.89,0,0,1,3,6.2h0a4.89,4.89,0,0,1-4.71,3.3h0A4.94,4.94,0,0,1,296.91,616.46Zm165.27-2.22a4.86,4.86,0,0,1,3.06-6.17h0a4.88,4.88,0,0,1,6.17,3.09h0a4.88,4.88,0,0,1-3.06,6.15h0a4.84,4.84,0,0,1-1.67.25h0A4.86,4.86,0,0,1,462.18,614.24ZM276.6,608.48a4.86,4.86,0,0,1-2.5-6.42h0a4.87,4.87,0,0,1,6.42-2.48h0A4.87,4.87,0,0,1,283,606h0a4.87,4.87,0,0,1-4.56,2.9h0A4.73,4.73,0,0,1,276.6,608.48ZM482.31,607a4.87,4.87,0,0,1,2.57-6.4h0a4.87,4.87,0,0,1,6.39,2.57h0a4.87,4.87,0,0,1-2.56,6.39h0a4.91,4.91,0,0,1-2,.39h0A4.89,4.89,0,0,1,482.31,607ZM257,598.88a4.86,4.86,0,0,1-2-6.6h0a4.87,4.87,0,0,1,6.6-2h0a4.86,4.86,0,0,1,1.95,6.61h0a4.87,4.87,0,0,1-4.38,2.56h0A4.72,4.72,0,0,1,257,598.88Zm244.79-.75a4.86,4.86,0,0,1,2-6.58h0a4.86,4.86,0,0,1,6.58,2h0a4.88,4.88,0,0,1-2,6.58h0a4.75,4.75,0,0,1-2.37.58h0A4.91,4.91,0,0,1,501.8,598.13ZM238.26,587.69h0a4.87,4.87,0,0,1-1.42-6.73h0a4.89,4.89,0,0,1,6.75-1.42h0a4.88,4.88,0,0,1,1.4,6.75h0a4.84,4.84,0,0,1-4.17,2.19h0A4.84,4.84,0,0,1,238.26,587.69Zm282.22,0A4.89,4.89,0,0,1,522,581h0a4.86,4.86,0,0,1,6.73,1.49h0a4.83,4.83,0,0,1-1.48,6.7h0a4.83,4.83,0,0,1-2.72.79h0A4.93,4.93,0,0,1,520.48,587.7ZM220.51,575a4.86,4.86,0,0,1-.86-6.83h0a4.84,4.84,0,0,1,6.82-.86h0a4.88,4.88,0,0,1,.87,6.84h0a4.93,4.93,0,0,1-4,1.87h0A5,5,0,0,1,220.51,575Zm317.77.73a4.86,4.86,0,0,1,.92-6.82h0a4.87,4.87,0,0,1,6.82.92h0a4.89,4.89,0,0,1-.93,6.84h0a4.93,4.93,0,0,1-3.05,1h0A4.87,4.87,0,0,1,538.28,575.76ZM203.85,561a4.88,4.88,0,0,1-.31-6.89h0a4.87,4.87,0,0,1,6.89-.3h0a4.87,4.87,0,0,1,.28,6.88h0a4.82,4.82,0,0,1-3.67,1.58h0A4.91,4.91,0,0,1,203.85,561ZM555,562.43a4.87,4.87,0,0,1,.36-6.89h0a4.87,4.87,0,0,1,6.88.38h0a4.85,4.85,0,0,1-.37,6.86h0a4.8,4.8,0,0,1-3.36,1.26h0A4.89,4.89,0,0,1,555,562.43ZM188.39,545.56a4.84,4.84,0,0,1,.26-6.87h0a4.86,4.86,0,0,1,6.87.26h0a4.88,4.88,0,0,1-.26,6.89h0a5,5,0,0,1-3.42,1.29h0A4.85,4.85,0,0,1,188.39,545.56Zm382.23,2.21a4.91,4.91,0,0,1-.18-6.9h0a4.91,4.91,0,0,1,6.9-.19h0a4.91,4.91,0,0,1,.18,6.9h0a4.9,4.9,0,0,1-3.65,1.5h0A4.85,4.85,0,0,1,570.62,547.77ZM174.22,529a4.88,4.88,0,0,1,.82-6.84h0a4.87,4.87,0,0,1,6.84.82h0a4.89,4.89,0,0,1-.82,6.85h0a4.85,4.85,0,0,1-3.1,1h0A4.88,4.88,0,0,1,174.22,529ZM585,531.88a4.86,4.86,0,0,1-.74-6.85v0a4.86,4.86,0,0,1,6.84-.76h0a4.85,4.85,0,0,1,.75,6.83h0A4.83,4.83,0,0,1,588,533h0A4.89,4.89,0,0,1,585,531.88Zm-423.55-20.6v0h0a4.88,4.88,0,0,1,1.39-6.75h0a4.88,4.88,0,0,1,6.75,1.37h0a4.88,4.88,0,0,1-1.39,6.75h0a4.78,4.78,0,0,1-2.78.8h0A4.84,4.84,0,0,1,161.45,511.28ZM598,514.89a4.89,4.89,0,0,1-1.3-6.77h0a4.86,4.86,0,0,1,6.76-1.3h0a4.86,4.86,0,0,1,1.31,6.75h0a4.87,4.87,0,0,1-4.14,2.15h0A4.94,4.94,0,0,1,598,514.89ZM150.19,492.62a4.85,4.85,0,0,1,1.93-6.6h0a4.86,4.86,0,0,1,6.6,1.93h0a4.84,4.84,0,0,1-1.93,6.6h0a4.72,4.72,0,0,1-2.42.6h0A4.83,4.83,0,0,1,150.19,492.62Zm459.45,4.26a4.89,4.89,0,0,1-1.85-6.65h0a4.86,4.86,0,0,1,6.62-1.85h0a4.87,4.87,0,0,1,1.87,6.63h0a4.88,4.88,0,0,1-4.34,2.48h0A5,5,0,0,1,609.64,496.88ZM140.48,473.12a4.85,4.85,0,0,1,2.45-6.43h0a4.87,4.87,0,0,1,6.44,2.45h0a4.86,4.86,0,0,1-2.45,6.43h0a5,5,0,0,1-2.09.43h0A4.88,4.88,0,0,1,140.48,473.12ZM619.73,478a4.84,4.84,0,0,1-2.4-6.43h0a4.87,4.87,0,0,1,6.46-2.4h0a4.86,4.86,0,0,1,2.4,6.45h0a4.87,4.87,0,0,1-4.54,2.83h0A4.42,4.42,0,0,1,619.73,478ZM132.41,452.87a4.86,4.86,0,0,1,3-6.21h0a4.84,4.84,0,0,1,6.19,3h0a4.87,4.87,0,0,1-3,6.21h0a4.67,4.67,0,0,1-1.72.28h0A4.88,4.88,0,0,1,132.41,452.87Zm495.83,5.43a4.88,4.88,0,0,1-2.93-6.23h0a4.88,4.88,0,0,1,6.23-2.93h0a4.87,4.87,0,0,1,2.93,6.23h0a4.9,4.9,0,0,1-4.68,3.22h0A4.83,4.83,0,0,1,628.24,458.3ZM126,432a4.86,4.86,0,0,1,3.47-5.94h0a4.86,4.86,0,0,1,6,3.47h0a4.9,4.9,0,0,1-3.49,5.95h0a4.57,4.57,0,0,1-1.33.16h0A4.85,4.85,0,0,1,126,432Zm509,6a4.86,4.86,0,0,1-3.4-6h0a4.87,4.87,0,0,1,6-3.43h0a4.88,4.88,0,0,1,3.42,6h0a4.9,4.9,0,0,1-4.81,3.58h0A5.57,5.57,0,0,1,635.06,438Zm-513.67-27.3h0a4.87,4.87,0,0,1,4-5.65h0a4.85,4.85,0,0,1,5.62,4h0a4.85,4.85,0,0,1-4,5.63h0a6,6,0,0,1-.94.08h0A4.88,4.88,0,0,1,121.39,410.71Zm518.84,6.5a4.85,4.85,0,0,1-3.9-5.67h0a4.85,4.85,0,0,1,5.67-3.89h0a4.87,4.87,0,0,1,3.9,5.67h0a4.87,4.87,0,0,1-4.87,4h0A3.58,3.58,0,0,1,640.23,417.21ZM118.51,389.08h0a4.87,4.87,0,0,1,4.41-5.28h0a4.85,4.85,0,0,1,5.29,4.39h0a4.89,4.89,0,0,1-4.4,5.31h-.54A4.87,4.87,0,0,1,118.51,389.08Zm525.13,7a4.89,4.89,0,0,1-4.35-5.35h0a4.89,4.89,0,0,1,5.35-4.35h0a4.9,4.9,0,0,1,4.35,5.35h0a4.89,4.89,0,0,1-4.94,4.38h0C643.92,396.11,643.78,396.09,643.64,396.09ZM117.42,367.3a4.86,4.86,0,0,1,4.81-4.91h0a4.89,4.89,0,0,1,4.93,4.82h0a4.91,4.91,0,0,1-4.84,4.93h-.13A4.86,4.86,0,0,1,117.42,367.3Zm523.16,2.47a4.88,4.88,0,0,1,5-4.77h0a4.88,4.88,0,0,1,4.77,5h0a4.88,4.88,0,0,1-5,4.77h0A4.88,4.88,0,0,1,640.58,369.77Zm-518-19.06a4.89,4.89,0,0,1-4.53-5.19h0a4.84,4.84,0,0,1,5.2-4.51h0a4.87,4.87,0,0,1,4.51,5.19h0a4.88,4.88,0,0,1-5,4.52h-.25Zm517.84,3h0a4.89,4.89,0,0,1,4.68-5.06h0a4.87,4.87,0,0,1,5.06,4.66h0a4.88,4.88,0,0,1-4.68,5.07h0a2.81,2.81,0,0,0-.29,0h0A4.85,4.85,0,0,1,640.43,353.75ZM124.57,329.41a4.87,4.87,0,0,1-4.07-5.56h0a4.85,4.85,0,0,1,5.53-4.08h0a4.87,4.87,0,0,1,4.08,5.54h0a4.86,4.86,0,0,1-4.9,4.15h0Zm514.15,3.41a4.85,4.85,0,0,1,4.22-5.43h0a4.88,4.88,0,0,1,5.44,4.24h0a4.9,4.9,0,0,1-4.24,5.43h0c-.23,0-.47,0-.7,0h0A4.82,4.82,0,0,1,638.72,332.82ZM128.28,308.31a4.87,4.87,0,0,1-3.62-5.86h0a4.9,4.9,0,0,1,5.88-3.62h0a4.9,4.9,0,0,1,3.6,5.88h0a4.88,4.88,0,0,1-4.83,3.74h0A5.11,5.11,0,0,1,128.28,308.31Zm507,3.77a4.89,4.89,0,0,1,3.79-5.75h0a4.86,4.86,0,0,1,5.76,3.78h0a4.89,4.89,0,0,1-3.78,5.75h0A4.12,4.12,0,0,1,640,316h0A4.9,4.9,0,0,1,635.28,312.08ZM133.71,287.6a4.9,4.9,0,0,1-3.13-6.15h0a4.88,4.88,0,0,1,6.16-3.1h0a4.86,4.86,0,0,1,3.11,6.14h0a4.89,4.89,0,0,1-4.72,3.35h0A5.35,5.35,0,0,1,133.71,287.6Zm496.46,4.11a4.86,4.86,0,0,1,3.3-6h0a4.87,4.87,0,0,1,6,3.28h0a4.85,4.85,0,0,1-3.3,6h0a4.69,4.69,0,0,1-1.48.21h0A4.87,4.87,0,0,1,630.17,291.71ZM140.83,267.39a4.9,4.9,0,0,1-2.6-6.39h0a4.88,4.88,0,0,1,6.39-2.59h0a4.87,4.87,0,0,1,2.59,6.38h0a4.87,4.87,0,0,1-4.6,3h0A5.25,5.25,0,0,1,140.83,267.39Zm482.56,4.43a4.87,4.87,0,0,1,2.8-6.29h0a4.87,4.87,0,0,1,6.3,2.78h0a4.88,4.88,0,0,1-2.78,6.29h0a4.72,4.72,0,0,1-1.86.33h0A4.86,4.86,0,0,1,623.39,271.82Zm-473.78-24a4.86,4.86,0,0,1-2.07-6.57h0a4.85,4.85,0,0,1,6.57-2.07h0a4.86,4.86,0,0,1,2.06,6.57h0a4.9,4.9,0,0,1-4.43,2.62h0A5.06,5.06,0,0,1,149.61,247.84ZM615,252.56v0a4.88,4.88,0,0,1,2.25-6.52h0a4.86,4.86,0,0,1,6.5,2.26h0a4.85,4.85,0,0,1-2.26,6.5h0a4.82,4.82,0,0,1-2.21.5h0A4.87,4.87,0,0,1,615,252.56ZM160,229.06a4.84,4.84,0,0,1-1.52-6.72h0a4.87,4.87,0,0,1,6.71-1.51h0a4.89,4.89,0,0,1,1.52,6.73h0a4.91,4.91,0,0,1-4.22,2.25h0A4.76,4.76,0,0,1,160,229.06Zm445.13,5a4.86,4.86,0,0,1,1.72-6.66h0a4.84,4.84,0,0,1,6.66,1.71h0a4.85,4.85,0,0,1-1.71,6.67h0a4.87,4.87,0,0,1-2.57.67h0A4.9,4.9,0,0,1,605.08,234.06ZM171.79,211.2a4.83,4.83,0,0,1-1-6.79h0a4.84,4.84,0,0,1,6.82-1h0a4.88,4.88,0,0,1,1,6.81h0a4.88,4.88,0,0,1-4,1.95h0A4.75,4.75,0,0,1,171.79,211.2Zm421.87,5.23a4.88,4.88,0,0,1,1.17-6.79h0a4.9,4.9,0,0,1,6.8,1.17h0a4.87,4.87,0,0,1-1.17,6.78h0a4.91,4.91,0,0,1-2.91.89h0A4.89,4.89,0,0,1,593.66,216.43ZM185,194.39a4.9,4.9,0,0,1-.4-6.88h0a4.88,4.88,0,0,1,6.88-.4h0a4.87,4.87,0,0,1,.41,6.88h0a4.9,4.9,0,0,1-3.74,1.64h0A5,5,0,0,1,185,194.39Zm395.83,5.38a4.85,4.85,0,0,1,.61-6.85h0a4.84,4.84,0,0,1,6.84.61h0a4.88,4.88,0,0,1-.61,6.87h0a4.87,4.87,0,0,1-3.22,1.12h0A4.8,4.8,0,0,1,580.86,199.77ZM199.61,178.7a4.86,4.86,0,0,1,.16-6.87h0a4.87,4.87,0,0,1,6.9.14h0a4.89,4.89,0,0,1-.16,6.89h0a4.89,4.89,0,0,1-3.46,1.35h0A4.87,4.87,0,0,1,199.61,178.7Zm367.1,5.52h0a4.85,4.85,0,0,1,0-6.87h0a4.85,4.85,0,0,1,6.87,0h0a4.86,4.86,0,0,1,0,6.88h0a4.86,4.86,0,0,1-3.52,1.41h0A4.91,4.91,0,0,1,566.71,184.22Zm-351.27-20a4.87,4.87,0,0,1,.7-6.86h0a4.88,4.88,0,0,1,6.86.73h0a4.87,4.87,0,0,1-.72,6.84h0a4.76,4.76,0,0,1-3.16,1.08h0A4.86,4.86,0,0,1,215.44,164.26Zm335.92,5.6h0a4.86,4.86,0,0,1-.5-6.86h0a4.87,4.87,0,0,1,6.86-.51h0a4.87,4.87,0,0,1,.5,6.87h0a4.83,4.83,0,0,1-3.79,1.7h0A4.86,4.86,0,0,1,551.36,169.86Zm-319-18.73a4.85,4.85,0,0,1,1.27-6.75h0a4.86,4.86,0,0,1,6.77,1.27h0a4.87,4.87,0,0,1-1.27,6.77h0a4.88,4.88,0,0,1-2.84.84h0A4.83,4.83,0,0,1,232.36,151.13ZM534.9,156.8h0a4.86,4.86,0,0,1-1.07-6.8h0a4.86,4.86,0,0,1,6.8-1.06h0a4.86,4.86,0,0,1,1.06,6.8h0a4.85,4.85,0,0,1-4,2h0A4.71,4.71,0,0,1,534.9,156.8ZM250.29,139.44a4.84,4.84,0,0,1,1.83-6.62h0a4.84,4.84,0,0,1,6.63,1.81h0a4.87,4.87,0,0,1-1.82,6.65h0a4.89,4.89,0,0,1-2.5.63h0A4.86,4.86,0,0,1,250.29,139.44Zm267.12,5.69a4.85,4.85,0,0,1-1.62-6.68h0a4.84,4.84,0,0,1,6.7-1.61h0v0h0a4.87,4.87,0,0,1,1.61,6.69h0a4.83,4.83,0,0,1-4.25,2.33h0A5,5,0,0,1,517.41,145.13ZM269.12,129.27a4.86,4.86,0,0,1,2.36-6.47h0a4.86,4.86,0,0,1,6.47,2.35h0a4.87,4.87,0,0,1-2.35,6.48h0a4.88,4.88,0,0,1-2.15.46h0A4.9,4.9,0,0,1,269.12,129.27ZM499,134.93h0a4.84,4.84,0,0,1-2.17-6.53h0a4.87,4.87,0,0,1,6.53-2.17h0a4.87,4.87,0,0,1,2.17,6.54h0a4.88,4.88,0,0,1-4.46,2.69h0A4.78,4.78,0,0,1,499,134.93ZM288.72,120.66a4.87,4.87,0,0,1,2.88-6.25h0a4.87,4.87,0,0,1,6.25,2.89h0a4.86,4.86,0,0,1-2.88,6.25h0a5,5,0,0,1-1.78.3h0A4.88,4.88,0,0,1,288.72,120.66Zm191.15,5.62a4.86,4.86,0,0,1-2.69-6.33h0a4.86,4.86,0,0,1,6.33-2.7h0a4.86,4.86,0,0,1,2.69,6.33h0a4.85,4.85,0,0,1-4.6,3h0A4.93,4.93,0,0,1,479.87,126.28ZM309,113.69a4.84,4.84,0,0,1,3.39-6h0a4.86,4.86,0,0,1,6,3.37h0a4.87,4.87,0,0,1-3.4,6h0a4.69,4.69,0,0,1-1.38.19h0A4.88,4.88,0,0,1,309,113.69Zm151.12,5.53h0a4.87,4.87,0,0,1-3.23-6.08h0a4.9,4.9,0,0,1,6.11-3.21h0a4.88,4.88,0,0,1,3.21,6.09h0a4.89,4.89,0,0,1-4.75,3.43h0A4.44,4.44,0,0,1,460.09,119.22ZM329.72,108.43a4.87,4.87,0,0,1,3.88-5.7h0a4.88,4.88,0,0,1,5.71,3.88h0a4.85,4.85,0,0,1-3.86,5.68h0a5,5,0,0,1-1,.1h0A4.89,4.89,0,0,1,329.72,108.43Zm110.07,5.41a4.84,4.84,0,0,1-3.7-5.8h0a4.84,4.84,0,0,1,5.8-3.7h0a4.87,4.87,0,0,1,3.7,5.8h0a4.88,4.88,0,0,1-4.85,3.82h0A6.17,6.17,0,0,1,439.79,113.84Zm-89-9a4.9,4.9,0,0,1,4.32-5.37h0a4.88,4.88,0,0,1,5.37,4.34h0a4.84,4.84,0,0,1-4.32,5.34h0a3.34,3.34,0,0,1-.62,0h0A4.87,4.87,0,0,1,350.83,104.88Zm68.27,5.26h0a4.89,4.89,0,0,1-4.18-5.48h0a4.88,4.88,0,0,1,5.51-4.17h0a4.85,4.85,0,0,1,4.15,5.48h0a4.86,4.86,0,0,1-4.92,4.2h0A5.25,5.25,0,0,1,419.1,110.14Zm-46.92-7.06a4.85,4.85,0,0,1,4.74-5h0a4.85,4.85,0,0,1,5,4.74h0a4.85,4.85,0,0,1-4.74,5h-.24A4.84,4.84,0,0,1,372.18,103.08Zm21.41-.09a4.86,4.86,0,0,1,5.12-4.59h0a4.91,4.91,0,0,1,4.61,5.14h0a4.87,4.87,0,0,1-5.14,4.59h0A4.86,4.86,0,0,1,393.59,103Z" transform="translate(96.86 65.97)"/><ellipse class="cls-5" cx="500.88" cy="721.06" rx="208.22" ry="23.55"/><path class="cls-6" d="M495.32,160.74a38.36,38.36,0,0,1-4.62,4.48c-10.45,8.88-39.86,27.88-100.13,27.88-49.87,0-79.93-8.22-94.34-13.65a69.44,69.44,0,0,1-10.41-4.68s-14.94-38.45,42.32-33.09S417.36,167.65,441,158,503.14,145.39,495.32,160.74Z" transform="translate(96.86 65.97)"/><path class="cls-7" d="M490.7,165.22c-10.45,8.88-39.86,27.88-100.13,27.88-49.87,0-79.93-8.22-94.34-13.65l0,0s-25.31-35.62,31.95-30.26,88.12,21.15,112.74,14.35C463.51,157.25,492.78,152.1,490.7,165.22Z" transform="translate(96.86 65.97)"/><path class="cls-8" d="M530,245.5a5.06,5.06,0,0,0-7.15.12c-12.17,12.54-32.46,10.28-57.4-3.76a.53.53,0,0,1-.1-.06,38.78,38.78,0,0,0-27.13-4.15v15a49.15,49.15,0,0,1,18,8.12c.29.2.58.43.87.67,8.71,7.27,20.74,32.42,36,41.66a33.42,33.42,0,0,0,28.13,3.47,5,5,0,0,0,3.36-4.76,5.18,5.18,0,0,0-.16-1.29,5.07,5.07,0,0,0-6.17-3.63c-16.94,4.38-33.11-8.18-47.09-33.22a38.09,38.09,0,0,0-8.5-10.45,39.57,39.57,0,0,0-8.65-5.61,67.87,67.87,0,0,1,9.52,3.37c12,5,28,13.09,41,13a33.39,33.39,0,0,0,25.81-11.69,5.06,5.06,0,0,0-.42-6.83Z" transform="translate(96.86 65.97)"/><path class="cls-9" d="M465.45,241.86a.53.53,0,0,1-.1-.06,38.78,38.78,0,0,0-27.13-4.15v15a49,49,0,0,1,18,8.12c.29.2.58.43.87.67a25.81,25.81,0,0,0,5.57-8.22,39.57,39.57,0,0,0-8.65-5.61,67.87,67.87,0,0,1,9.52,3.37A37.36,37.36,0,0,0,465.45,241.86Z" transform="translate(96.86 65.97)"/><path class="cls-10" d="M495.32,160.74s-9.35,56.12-62.66,87c0,0-34.65,12.13-60.76,4.18A39.6,39.6,0,0,1,355,242.11s-58-44-69.21-67.34c0,0,7.24-17.9,50.5-19.17,8-.24,16.26,1,24.95,2.81C395.79,165.72,437,183.16,495.32,160.74Z" transform="translate(96.86 65.97)"/><path class="cls-11" d="M488.33,167.14s-12.8,44.16-37.59,58.47a38.38,38.38,0,0,1-12.52-3.87S465.45,210.79,488.33,167.14Z" transform="translate(96.86 65.97)"/><path class="cls-10" d="M400.35,666.59c-208.68,0-211.89-158-146.77-256.14S356.19,238.59,356.19,238.59l5.37.9a217.5,217.5,0,0,0,23.85,2.68h0A218.44,218.44,0,0,0,439,238.59s10.75,18.43,29.65,49.12,45.94,73.67,78.49,122.74c20.94,31.56,34.82,69.31,37.06,106h0C588.93,593.87,541.93,666.59,400.35,666.59Z" transform="translate(96.86 65.97)"/><path class="cls-11" d="M439.39,264s62.95,91.62,100,154.54c31.31,53.23,43,107.26,13.64,145,0,0,21.24-56.46-23.86-141.24C508.28,383.09,453,309.8,439.39,264Z" transform="translate(96.86 65.97)"/><path class="cls-6" d="M427.29,503.19l0,21-26.68,0,0-20.06C381.69,503,363.33,498,352,491l14.35-32.56c12.49,7.37,29.15,12.09,43.71,12.07,12.68,0,17.22-2.66,17.22-7.2,0-16.65-73.23-3.15-73.28-52.54,0-21.38,15.48-39.37,46.51-43.75l0-20.62,26.68,0,0,20.25c14,1.31,27.63,4.89,38.42,10.94l-13.41,32.37c-13.06-6.61-25.36-9.82-36.9-9.81-13.06,0-17.22,3.8-17.21,8.34,0,15.9,73.23,2.59,73.27,51.4C471.36,480.26,456.62,498.06,427.29,503.19Z" transform="translate(96.86 65.97)"/><path class="cls-6" d="M542.53,624.78c-29.16,25.46-75,41.81-142.18,41.81-208.68,0-211.89-158-146.77-256.14S356.19,238.59,356.19,238.59l5.37.9q4.24.72,8.51,1.26,7.65,1,15.34,1.42h0s-12.52,90.41-66.06,165.05-31,180.1,81,199.58,188.45-19.65,183.83-90.35h0C586.68,557.16,574.87,596.56,542.53,624.78Z" transform="translate(96.86 65.97)"/><path class="cls-6" d="M361.27,158.45v0a.23.23,0,0,0,0-.07A.41.41,0,0,1,361.27,158.45Z" transform="translate(96.86 65.97)"/><path class="cls-6" d="M385.76,239.44c1.24-19.65-27.72-26.2-42-50-14.94-24.9,17.52-31,17.52-31-8.69-1.85-16.95-3-24.95-2.81-14.16.42-24.46,2.61-31.92,5.38-15.3,5.69-18.58,13.79-18.58,13.79,9.56,19.94,53.12,54.82,65.75,64.67Z" transform="translate(96.86 65.97)"/><path class="cls-8" d="M450,244.84a9.27,9.27,0,0,1-3.14,7.06s-49.39-15.22-99.15,2.7a15.18,15.18,0,0,1-2.74-9.53,15.86,15.86,0,0,1,2.54-7.61s48.09-13.62,100,.24A13.33,13.33,0,0,1,450,244.84Z" transform="translate(96.86 65.97)"/><path class="cls-9" d="M450,244.84a9.27,9.27,0,0,1-3.14,7.06s-49.39-15.22-99.15,2.7a15.18,15.18,0,0,1-2.74-9.53C356.63,241.13,403.7,231,450,244.84Z" transform="translate(96.86 65.97)"/><path class="cls-8" d="M453.6,237.14c-1,1.26-2.83,2.34-6.12,2.34,0,0-45.32-17.49-100-.23a8.2,8.2,0,0,1-5.54-2.76,6.47,6.47,0,0,1-1.27-3.94s59.52-20.89,114.11.71A5.87,5.87,0,0,1,453.6,237.14Z" transform="translate(96.86 65.97)"/><path class="cls-9" d="M453.6,237.14c-1,1.26-2.83,2.34-6.12,2.34,0,0-45.32-17.49-100-.23a8.2,8.2,0,0,1-5.54-2.76C350.8,233.67,404,218.13,453.6,237.14Z" transform="translate(96.86 65.97)"/><ellipse class="cls-5" cx="264.62" cy="750.58" rx="79.94" ry="12.24"/><path class="cls-12" d="M199.57,466.91l-37.65-3.52,22.58,112c-6.38,25.88-1,59,2.24,96.9h13.93l8.87-107.12" transform="translate(96.86 65.97)"/><path class="cls-13" d="M186.34,671.45a6.49,6.49,0,0,0-.84,3.59c0,2.42.23,10.77.23,10.77h40.78s.15-6.35-5-9.74-13.11-.07-20.69-5.39C200.81,670.68,198.77,672.53,186.34,671.45Z" transform="translate(96.86 65.97)"/><path class="cls-14" d="M110.44,671.48c2.69-29,15.35-87.47,23.42-100.07l.08-109.55,36.8,8.72-11,101.06-35.2,99C120.35,673,115.47,672.58,110.44,671.48Z" transform="translate(96.86 65.97)"/><path class="cls-13" d="M110.44,671.48a6.36,6.36,0,0,0-.93,3.65v10.68h40.74s.15-6.35-5-9.74-13.11-.07-20.7-5.39C124.54,670.68,122.88,672.56,110.44,671.48Z" transform="translate(96.86 65.97)"/><path class="cls-15" d="M201.84,467.38c-1.77,3-7.83,5.29-13,6.57l-1.07.25c-.9.2-1.77.37-2.57.51a156.45,156.45,0,0,1-25.83,2.1,40.75,40.75,0,0,1-5.06-.33l-1.06-.14c-9-1.31-19-5.21-24.07-10.24l7.27-32.81L122.3,351.75,141,345.31l1-.35,4.2-1.45,3.33-1.14L169.35,345l3.23.42,1.13.15,14.17,1.87Z" transform="translate(96.86 65.97)"/><path class="cls-14" d="M186.36,297.81s15-9.77,10.67-15.91c-1.9-2.7-10,.87-10,.87s11.36-8.78,5.77-12c-4.87-2.82-11.88,4.3-11.88,4.3s6.5-7.07,1.59-8.5c-6.76-2-14.32,6.69-25.17,6.49s-27,12-14.28,28.16Z" transform="translate(96.86 65.97)"/><path class="cls-16" d="M166.68,331.57l-.92,11.18-.42,5.12c-6.57,4.6-16.88-2.24-16.88-2.24L148,328.08c3-1.94,10.45.87,15,2.28C165.19,331,166.68,331.57,166.68,331.57Z" transform="translate(96.86 65.97)"/><path class="cls-17" d="M166.68,331.57l-.92,11.18c-7.52-1.95-13.59-12.6-13.59-12.6l10.86.21C165.19,331,166.68,331.57,166.68,331.57Z" transform="translate(96.86 65.97)"/><path class="cls-16" d="M187.89,303.15q0,.57-.06,1.17a176.33,176.33,0,0,1-3.17,22.47,13.29,13.29,0,0,1-16,10.39,149.09,149.09,0,0,1-17-4.78,12.1,12.1,0,0,1-4.52-2.93,11.89,11.89,0,0,1-2.31-3.4,40.05,40.05,0,0,1-2.73-8.75,59.86,59.86,0,0,1-1-7.44c0-.16,0-.31-.07-.45,0-1.36.08-2.71.13-4h0c.33-8.14.91-15.17.91-15.17,10.95-12.93,40.42-7.06,44.69,2.7.08.18.15.37.22.57C187.83,295.75,188,299.17,187.89,303.15Z" transform="translate(96.86 65.97)"/><path class="cls-14" d="M147.17,329.47a11.89,11.89,0,0,1-2.31-3.4,40.05,40.05,0,0,1-2.73-8.75,7.85,7.85,0,0,1,4.58.79S152.8,327.35,147.17,329.47Z" transform="translate(96.86 65.97)"/><path class="cls-14" d="M187,293.49h0c-9,5.8-24-2.4-24-2.4-1,4.05-6.92,3.81-8.51,7.23a21.82,21.82,0,0,0-1.43,6.8,3.18,3.18,0,0,1-3.23,2.91h0c-3.85-5.6-8.66-2.64-8.66-2.64h0c.33-8.14.91-15.17.91-15.17,10.95-12.93,40.42-7.06,44.69,2.7C186.89,293.1,187,293.29,187,293.49Z" transform="translate(96.86 65.97)"/><path class="cls-16" d="M149.87,308s-4.6-5.86-8.66-2.63c-4.46,3.56-1.41,16.09,7.48,16Z" transform="translate(96.86 65.97)"/><path class="cls-18" d="M187.88,347.42s26.88,53.79,32.57,69.9c0,0,29.83.75,42.41,0l-3.38,14.75s-31,3.26-41,4c-9.14.69-23.51-27.46-23.51-27.46Z" transform="translate(96.86 65.97)"/><path class="cls-19" d="M297.3,376.52a72,72,0,0,1-99.56,85.92q-2.36-1.1-4.62-2.36A72.17,72.17,0,0,1,175.23,446q-1.53-1.65-2.95-3.41a71.93,71.93,0,0,1-13.12-24.85c-.25-.85-.49-1.71-.71-2.58a72.11,72.11,0,0,1,76.62-89.8c1.73.17,3.45.39,5.16.69a72,72,0,0,1,21.28,7.15c1.47.76,2.9,1.57,4.31,2.43a71.84,71.84,0,0,1,25,25.66,71.57,71.57,0,0,1,5.7,12.68C296.77,374.82,297,375.67,297.3,376.52Z" transform="translate(96.86 65.97)"/><path class="cls-20" d="M290.78,361.29,233.17,469.05a71.4,71.4,0,0,1-19.3-1.27l65.76-121.2A71.68,71.68,0,0,1,290.78,361.29Z" transform="translate(96.86 65.97)"/><path class="cls-20" d="M240.23,326.05l-65,120q-1.53-1.65-2.95-3.41l62.79-117.23C236.8,325.53,238.52,325.75,240.23,326.05Z" transform="translate(96.86 65.97)"/><path class="cls-20" d="M265.82,335.63,197.74,462.44q-2.36-1.1-4.62-2.36L261.51,333.2C263,334,264.41,334.77,265.82,335.63Z" transform="translate(96.86 65.97)"/><path class="cls-21" d="M283.44,380.66c.25.85.48,1.7.7,2.55a57.61,57.61,0,0,1-110.3,32.91c-.28-.83-.56-1.67-.81-2.51a57.61,57.61,0,0,1,110.41-32.95Z" transform="translate(96.86 65.97)"/><path class="cls-10" d="M284.14,383.21a57.69,57.69,0,0,1-39.43,69.13l-2,.55a57.3,57.3,0,0,1-38.63-3.48q-2.24-1-4.38-2.25a57.83,57.83,0,0,1-17-14.66c-1.12-1.44-2.19-2.94-3.17-4.49a57.58,57.58,0,0,1-5.75-11.89,57.61,57.61,0,0,1,50.7-71.3,55,55,0,0,1,5.73-.23,57.52,57.52,0,0,1,22.3,4.74q2.25,1,4.43,2.15a57.5,57.5,0,0,1,25.56,27.69C283.13,380.48,283.66,381.84,284.14,383.21Z" transform="translate(96.86 65.97)"/><path class="cls-22" d="M282.56,379.17l-39.84,73.72a57.29,57.29,0,0,1-19.92,1.6l49.33-91.3A57.15,57.15,0,0,1,282.56,379.17Z" transform="translate(96.86 65.97)"/><path class="cls-22" d="M230.27,344.59,182.76,432.5c-1.12-1.44-2.19-2.94-3.17-4.49l44.95-83.19A55,55,0,0,1,230.27,344.59Z" transform="translate(96.86 65.97)"/><path class="cls-22" d="M257,351.48l-52.91,97.93q-2.24-1-4.38-2.25l52.86-97.83Q254.82,350.31,257,351.48Z" transform="translate(96.86 65.97)"/><path class="cls-21" d="M245.26,426.16l2.73,9.17-11.65,3.48-2.61-8.76c-8.41,2-17.09,2.13-23,.55l2-16.08a41.43,41.43,0,0,0,20.66-.41c5.54-1.65,7.17-3.4,6.58-5.38-2.17-7.27-32.39,8.13-38.83-13.43-2.78-9.34,1.65-19.21,14.63-25.15l-2.68-9,11.65-3.48,2.63,8.85a45,45,0,0,1,18.21-.22L244,382.17a37.32,37.32,0,0,0-17.4.51c-5.7,1.7-7,3.9-6.43,5.88,2.07,6.94,32.32-8.38,38.68,12.94C261.52,410.42,257.4,420.11,245.26,426.16Z" transform="translate(96.86 65.97)"/><path class="cls-19" d="M244,423.21l2.73,9.17-11.65,3.48-2.61-8.76c-8.41,2-17.09,2.13-23,.55l2-16.08a41.43,41.43,0,0,0,20.66-.41c5.54-1.65,7.18-3.4,6.58-5.38-2.17-7.27-32.39,8.13-38.83-13.43-2.78-9.34,1.65-19.21,14.63-25.15l-2.68-9,11.65-3.48,2.63,8.84a45.16,45.16,0,0,1,18.21-.21l-1.65,15.88a37.32,37.32,0,0,0-17.4.51c-5.7,1.7-7,3.9-6.43,5.88,2.07,6.94,32.32-8.38,38.68,12.94C260.27,407.47,256.15,417.16,244,423.21Z" transform="translate(96.86 65.97)"/><path class="cls-18" d="M207.89,434.5c-29.74,11.25-62-2.55-62-2.55s-23-23-28.39-47.89,4.85-32.31,4.85-32.31c18.22,46.7,33.07,65.57,33.07,65.57s25,4.21,36.86,5.83c6.44.88,15.66-2,15.66-2A43.59,43.59,0,0,1,207.89,434.5Z" transform="translate(96.86 65.97)"/><path class="cls-16" d="M207.89,421.13s4.59-5.56,6.84-5.56,3.6,2.78,3.6,2.78,6.07-2.11,8.76.75,3.75,21.5-19.2,15.4Z" transform="translate(96.86 65.97)"/><ellipse class="cls-5" cx="663.18" cy="757.26" rx="129.99" ry="7.92"/><path class="cls-12" d="M571.08,520.61l43,168a2,2,0,0,1-2,2.68,3.69,3.69,0,0,1-3.36-2.68l-43-168Z" transform="translate(96.86 65.97)"/><path class="cls-12" d="M641.29,520.61l43,168a2,2,0,0,1-2,2.68,3.69,3.69,0,0,1-3.36-2.68l-43-168Z" transform="translate(96.86 65.97)"/><path class="cls-12" d="M567.84,520.61h71.27a3.75,3.75,0,0,1,2.78,2.61,2,2,0,0,1-2,2.68H569.75a3.68,3.68,0,0,1-3.35-2.68A2,2,0,0,1,567.84,520.61Z" transform="translate(96.86 65.97)"/><path class="cls-12" d="M648.47,559.4H578.32a3.68,3.68,0,0,1-3.35-2.67,2,2,0,0,1,2-2.68H647.1a3.69,3.69,0,0,1,3.36,2.68A2,2,0,0,1,648.47,559.4Z" transform="translate(96.86 65.97)"/><path class="cls-12" d="M657,592.9H586.89a3.68,3.68,0,0,1-3.36-2.67,2,2,0,0,1,2-2.67h70.15a3.68,3.68,0,0,1,3.36,2.67A2,2,0,0,1,657,592.9Z" transform="translate(96.86 65.97)"/><path class="cls-12" d="M665.61,626.31H595.46a3.7,3.7,0,0,1-3.36-2.76,2.07,2.07,0,0,1,2-2.76h70.15a3.72,3.72,0,0,1,3.36,2.76A2.06,2.06,0,0,1,665.61,626.31Z" transform="translate(96.86 65.97)"/><path class="cls-12" d="M674.18,659.91H604a3.69,3.69,0,0,1-3.36-2.67,2,2,0,0,1,2-2.68h70.15a3.67,3.67,0,0,1,3.35,2.68A2,2,0,0,1,674.18,659.91Z" transform="translate(96.86 65.97)"/><path class="cls-14" d="M569.76,520.61h5.34l-43,168a3.67,3.67,0,0,1-3.35,2.68,2,2,0,0,1-2-2.68Z" transform="translate(96.86 65.97)"/><path class="cls-14" d="M456.57,688.62l43-168h5.35l-43,168a3.69,3.69,0,0,1-3.36,2.68A2,2,0,0,1,456.57,688.62Z" transform="translate(96.86 65.97)"/><path class="cls-12" d="M501.72,520.61H573a2,2,0,0,1,1.43,2.61,3.67,3.67,0,0,1-3.35,2.68H500.93a2,2,0,0,1-2-2.68A3.75,3.75,0,0,1,501.72,520.61Z" transform="translate(96.86 65.97)"/><rect class="cls-14" x="496.39" y="515.24" width="149.97" height="10.65" rx="2" transform="translate(1239.62 1107.11) rotate(180)"/><path class="cls-14" d="M492.36,559.4h70.15a3.69,3.69,0,0,0,3.36-2.67,2,2,0,0,0-2-2.68H493.73a3.69,3.69,0,0,0-3.36,2.68A2,2,0,0,0,492.36,559.4Z" transform="translate(96.86 65.97)"/><path class="cls-14" d="M483.79,592.9h70.15a3.68,3.68,0,0,0,3.36-2.67,2,2,0,0,0-2-2.67H485.16a3.68,3.68,0,0,0-3.36,2.67A2,2,0,0,0,483.79,592.9Z" transform="translate(96.86 65.97)"/><path class="cls-14" d="M475.23,626.31h70.14a3.7,3.7,0,0,0,3.36-2.76,2.06,2.06,0,0,0-2-2.76H476.59a3.7,3.7,0,0,0-3.35,2.76A2.06,2.06,0,0,0,475.23,626.31Z" transform="translate(96.86 65.97)"/><path class="cls-14" d="M466.66,659.91H536.8a3.69,3.69,0,0,0,3.36-2.67,2,2,0,0,0-2-2.68H468a3.68,3.68,0,0,0-3.35,2.68A2,2,0,0,0,466.66,659.91Z" transform="translate(96.86 65.97)"/><path class="cls-23" d="M535.44,166.74s5.7-14.51,27.37-12.19,22.74,23.94,23.6,33-.41,14.84,8.6,21.83c10.87,8.44,5,15.71,6.76,23.11s12.43,8.71,7.14,22.55-33.74,12.72-49.75,6.57-27.37-32.56-20.39-44.12S535.44,166.74,535.44,166.74Z" transform="translate(96.86 65.97)"/><path class="cls-24" d="M538.77,217.52s-20.95,48.92-25.59,62c0,0-24.34.62-34.59,0l2.75,12s25.27,2.66,33.42,3.27c7.46.56,26.56-43.68,26.56-43.68C543.19,233.83,542,224.93,538.77,217.52Z" transform="translate(96.86 65.97)"/><path class="cls-25" d="M550.74,501.4H538.55l-7.75-93.69,8.71-85.92,32.93-3.09-19.75,97.95C558.27,439.29,553.61,468.26,550.74,501.4Z" transform="translate(96.86 65.97)"/><path class="cls-13" d="M551.09,500.66a5.68,5.68,0,0,1,.74,3.14c0,2.12-.21,9.43-.21,9.43H516s-.14-5.56,4.38-8.52,11.46-.06,18.1-4.72C538.44,500,540.21,501.61,551.09,500.66Z" transform="translate(96.86 65.97)"/><path class="cls-23" d="M610,500.69c-2.36-25.39-13.43-76.5-20.49-87.51l-.07-95.81L557.26,325l9.62,88.38L597.66,500C601.33,502,605.59,501.65,610,500.69Z" transform="translate(96.86 65.97)"/><path class="cls-13" d="M610,500.69a5.61,5.61,0,0,1,.81,3.2v9.34H575.18s-.13-5.56,4.39-8.52,11.46-.06,18.09-4.72C597.66,500,599.12,501.64,610,500.69Z" transform="translate(96.86 65.97)"/><path class="cls-26" d="M537.67,263.37l1.49,59.36c31.36,11.24,51.17-2.26,51.17-2.26L581.39,271l12-45-8.12-4.08-1.64-.83h0l-3.56-1.8-11.27-5.67-22.64,2.93L543,217l-1.86.24-2.38.3c1.09,7.38.31,16.37-.61,25.47-1.68,3.64-3.07,7.69-3.15,11.3a11.7,11.7,0,0,0,2.41,7.57h0l.27.36Z" transform="translate(96.86 65.97)"/><path class="cls-27" d="M537.7,262.22l0,1.15A71.39,71.39,0,0,0,556,265.71a68.36,68.36,0,0,0,13.34-1.28.69.69,0,1,0-.27-1.36,70.08,70.08,0,0,1-31.64-1.2Z" transform="translate(96.86 65.97)"/><path class="cls-23" d="M569.38,203.92l-22.07-3.19A13.55,13.55,0,0,1,533.89,189c-.34-2.52-.66-5.13-.94-7.84a39.88,39.88,0,0,1,1.35-11.68c2-6.58,8.14-12.78,21.89-13.28,16.23-.59,25.16,13.66,24.75,31.06v.15C580.77,194.82,576.76,203.92,569.38,203.92Z" transform="translate(96.86 65.97)"/><path class="cls-24" d="M555.27,206.21l.72,4,.8,4.54.7,3.92c2.3,1.3,5,1,7.29.13a21.21,21.21,0,0,0,5.56-3.08l0-.32-.12-1.48-.81-10-.17-2.1c-1.25-.64-3.22-.18-5.3.62S559.7,204.32,558,205,555.27,206.21,555.27,206.21Z" transform="translate(96.86 65.97)"/><path class="cls-28" d="M555.27,206.21l1.52,8.55c5.66-2,9.56-10.7,9.56-10.7L558,205C556.38,205.68,555.27,206.21,555.27,206.21Z" transform="translate(96.86 65.97)"/><path class="cls-24" d="M573.24,197.12s-1.88,5.45-3.87,6.8a45.51,45.51,0,0,1-5,3.17,32.23,32.23,0,0,1-8.35,3.14,19.47,19.47,0,0,1-9.86-.33c-8.47-2.66-10.45-16.88-10.76-26.8,0-.28,0-.56,0-.82-.09-3.57,0-6.5.12-8,0-.68.06-1.06.06-1.06l25.25-.24,5.33,0c3.26,1.51,5.06,5.92,6,10.81a66.81,66.81,0,0,1,1.11,11.83C573.24,196.13,573.24,196.64,573.24,197.12Z" transform="translate(96.86 65.97)"/><path class="cls-24" d="M567.9,186.86s3.1-5.13,6.63-2.31c3.89,3.11,2.14,14-5.62,14Z" transform="translate(96.86 65.97)"/><path class="cls-23" d="M535.44,174.29c.08,3.26,5.79,6.52,26.65,6.71,0,0,0,9.62,4.12,8.74,1-.21,1.94-5.77,5.92-6,1.11-9.11-2.82-9.28-6-10.76l-30.58.28S535.48,173.61,535.44,174.29Z" transform="translate(96.86 65.97)"/><path class="cls-29" d="M550.51,295.06a71.72,71.72,0,0,1-128.78,23.41q-1.46-2.13-2.76-4.36A72,72,0,0,1,410.73,293c-.31-1.46-.59-2.93-.81-4.41a71.57,71.57,0,0,1,1.3-27.94c.22-.86.45-1.72.7-2.57A71.78,71.78,0,0,1,523,219.76q2.1,1.53,4.08,3.19a72.09,72.09,0,0,1,14.64,16.89q1.31,2.08,2.46,4.26a71.5,71.5,0,0,1,6.94,48.37C550.92,293.34,550.72,294.2,550.51,295.06Z" transform="translate(96.86 65.97)"/><path class="cls-20" d="M552.61,278.71,448.78,342a71.07,71.07,0,0,1-15.91-10.84l117.61-70.73A71.56,71.56,0,0,1,552.61,278.71Z" transform="translate(96.86 65.97)"/><path class="cls-20" d="M527.06,223,410.73,293c-.31-1.46-.59-2.93-.81-4.41L523,219.76Q525.08,221.29,527.06,223Z" transform="translate(96.86 65.97)"/><path class="cls-20" d="M544.16,244.1,421.73,318.47q-1.46-2.13-2.76-4.36L541.7,239.84Q543,241.93,544.16,244.1Z" transform="translate(96.86 65.97)"/><path class="cls-30" d="M536.53,291.61c-.21.86-.44,1.71-.68,2.54a57.34,57.34,0,0,1-111.22-27.47c.18-.86.36-1.72.57-2.57a57.34,57.34,0,0,1,111.33,27.5Z" transform="translate(96.86 65.97)"/><path class="cls-31" d="M535.85,294.15a57.4,57.4,0,0,1-68.73,39.37c-.67-.16-1.33-.34-2-.53a57.05,57.05,0,0,1-31.38-22.49q-1.39-2-2.62-4.14A57.5,57.5,0,0,1,424,285.22c-.24-1.8-.39-3.62-.45-5.45a57.11,57.11,0,0,1,1.07-13.09,57.42,57.42,0,0,1,68.73-39.38,56.75,56.75,0,0,1,10.76,3.83,53.79,53.79,0,0,1,5,2.69,57.37,57.37,0,0,1,16.73,15.33q1.44,2,2.72,4.09a57.18,57.18,0,0,1,7.93,36.65C536.36,291.31,536.13,292.73,535.85,294.15Z" transform="translate(96.86 65.97)"/><path class="cls-32" d="M536.53,289.89,465.14,333a56.62,56.62,0,0,1-17.9-8.69l88.42-53.38A57,57,0,0,1,536.53,289.89Z" transform="translate(96.86 65.97)"/><path class="cls-32" d="M509.15,233.82,424,285.22c-.24-1.8-.39-3.62-.45-5.45l80.56-48.64A53.79,53.79,0,0,1,509.15,233.82Z" transform="translate(96.86 65.97)"/><path class="cls-32" d="M528.6,253.24,433.76,310.5q-1.39-2-2.62-4.14l94.74-57.21Q527.32,251.13,528.6,253.24Z" transform="translate(96.86 65.97)"/><path class="cls-30" d="M480.81,311.35l-2.29,9.25-11.75-2.9,2.19-8.83c-8.21-2.56-15.74-6.81-20-11.12L458.86,285a41.19,41.19,0,0,0,17.93,10.09c5.58,1.38,7.87.7,8.36-1.3,1.81-7.33-31.89-9.38-26.52-31.12,2.32-9.42,11.11-15.65,25.25-14.19l2.24-9.08,11.75,2.9-2.2,8.92a44.88,44.88,0,0,1,15.72,9L502,273c-5-4.34-10.09-7.1-15.17-8.35-5.75-1.42-8-.21-8.49,1.79-1.73,7,31.95,9.13,26.64,30.63C502.71,306.07,494.28,312.29,480.81,311.35Z" transform="translate(96.86 65.97)"/><path class="cls-29" d="M481.22,308.19l-2.28,9.25-11.75-2.9,2.18-8.83c-8.2-2.56-15.73-6.81-20-11.13l9.87-12.76a41.31,41.31,0,0,0,17.93,10.09c5.59,1.37,7.87.7,8.37-1.3,1.81-7.33-31.9-9.38-26.52-31.13,2.32-9.41,11.11-15.64,25.25-14.18l2.24-9.08,11.75,2.9-2.2,8.92a44.82,44.82,0,0,1,15.72,9l-9.44,12.78c-5-4.33-10.09-7.09-15.18-8.34-5.75-1.42-8-.21-8.48,1.79-1.73,7,32,9.13,26.64,30.63C503.13,302.91,494.69,309.13,481.22,308.19Z" transform="translate(96.86 65.97)"/><path class="cls-24" d="M523.42,293.59c24.26,9.17,50.61-2.08,50.61-2.08s18.76-18.76,23.16-39.06-4-26.35-4-26.35c-14.87,38.08-26.3,55.88-26.3,55.88s-18,3.17-30.75,2.35c-5.29-.34-12.77-1.65-12.77-1.65A35.66,35.66,0,0,0,523.42,293.59Z" transform="translate(96.86 65.97)"/><path class="cls-24" d="M523.42,282.68s-3.74-4.53-5.58-4.53-2.94,2.26-2.94,2.26-4.94-1.71-7.14.62-3.06,17.54,15.66,12.56Z" transform="translate(96.86 65.97)"/></g><g id="Capa_1" data-name="Capa 1"><circle class="cls-33" cx="99.97" cy="99.97" r="99.97"/><text class="cls-34" transform="translate(44.71 132.92)">3</text></g></g></svg>