<?xml version="1.0" encoding="utf-8"?>
<!-- Generator: Adobe Illustrator 18.0.0, SVG Export Plug-In . SVG Version: 6.00 Build 0)  -->
<!DOCTYPE svg PUBLIC "-//W3C//DTD SVG 1.1//EN" "http://www.w3.org/Graphics/SVG/1.1/DTD/svg11.dtd">
<svg version="1.1" xmlns="http://www.w3.org/2000/svg" xmlns:xlink="http://www.w3.org/1999/xlink" x="0px" y="0px"
	 viewBox="0 0 625 625" enable-background="new 0 0 625 625" xml:space="preserve">
<symbol  id="New_Symbol" viewBox="-3.8 -3.8 7.6 7.6">
	<path fill="#FFFFFF" d="M3.8,0c0-2.1-1.7-3.8-3.8-3.8S-3.8-2.1-3.8,0S-2.1,3.8,0,3.8S3.8,2.1,3.8,0z"/>
</symbol>
<g id="Capa_1">
	<g>
		<defs>
			<rect id="SVGID_1_" x="0" width="625" height="625"/>
		</defs>
		<clipPath id="SVGID_2_">
			<use xlink:href="#SVGID_1_"  overflow="visible"/>
		</clipPath>
		<g transform="matrix( 1, 0, 0, 1, 0,0) " clip-path="url(#SVGID_2_)">
			<g>
				<g id="Layer0_0_FILL_1_">
					<path fill="#DAF3F4" d="M799.6,505.7V-34.4h-967.9v540.1H799.6z"/>
				</g>
			</g>
		</g>
		<g transform="matrix( 1, 0, 0, 1, 0,0) " clip-path="url(#SVGID_2_)">
			<g>
				<g id="Layer0_1_FILL_1_">
					<path fill="#BDE2E5" d="M667.3,319.6c-3.1,0.7-5.2,1.1-6.1,1.4c-6.5,1.9-16.1,5.4-29,10.5c-3.1,5.7-7.8,14.8-14.3,27.4
						c-3.2,0.7-6.2,1.4-9.1,2.1c-9,2.1-19.2,5.1-30.6,8.9c-1.6,3.8-8.4,19.3-20.4,46.3c-25.4-3.1-58.6-7.2-99.6-12.2
						c-2.9-6.5-6.9-15.2-11.9-25.9c-0.2,0-0.4,0-0.7-0.1c-10-1.2-24.4-2.6-43.3-4.3c-1.7-5.7-3.4-11.7-5.3-17.9
						c-3.4,0.3-7.3,0.7-11.4,1.1c-23.9,2.2-52.9,3.8-87.1,4.9c-0.8,3.1-2.2,8.6-4,16.6c-7.8,0.5-16.6,1.2-26.5,1.9
						c-46.5,3.5-79,6-97.6,7.3c-0.8-3-1.7-6.3-2.6-10c-6.1,0.9-17.1,2.4-33.1,4.6c-1.8,3.4-2.7,5.3-2.8,5.5
						c-3.2,6.9-6.4,16.9-9.7,30.1c-1.7-0.7-3.3-1.5-4.7-2.4c-1.9-1.2-3.5-1.9-4.7-2.2c-4-1.1-15.6-1.9-34.8-2.2
						c-2.2-4-5.2-9.3-9-15.7c-4.2,0.1-8.7,0.3-13.7,0.4c-7.3,0.2-15.3,0.3-24.2,0.4c-3.1-9.9-7.2-22.9-12.5-39
						c-10.1,0.7-23.9,1.6-41.4,2.6V502h713.3V399C682.9,375.1,675.2,348.6,667.3,319.6z"/>
				</g>
			</g>
		</g>
		<g transform="matrix( 1, 0, 0, 1, 0,0) " clip-path="url(#SVGID_2_)">
			<g>
				<g id="Layer0_2_FILL_1_">
					<path fill="#A9DEDD" d="M80.6,429c1.5,7.1,4.3,19.8,8.6,38.1c3.1,14,5.5,26.7,7.2,38h64.4c-3.4-8.3-7.8-18.8-13.1-31.4
						c-6.3-15-10.8-25.7-13.6-32.1c-2,0-4.4-0.3-7.3-0.7C118.6,439.3,103.2,435.4,80.6,429 M-28.9,215c-3-4.2-6.5-8.5-10.4-12.7
						c-1.8,3.9-3.4,10.7-4.9,20.2c-0.5,3-0.9,5.8-1.3,8.4c-4.7,4.8-12.1,12.2-22.1,22.3c-6.3,6-12.5,11.8-18.7,17.3V505H75.2
						C61.3,427,52.5,377.1,48.7,355.5c-6.5-0.9-14.4-2.9-23.6-5.9c-8.5-3.1-15.3-5.4-20.3-7.1c-0.5-4.9-1.1-10.3-1.8-16.2
						c-2.9-23.2-5-40.3-6.3-51.2l0,0c-3.7-0.5-11.4-2.6-23-6.1C-27.4,249.5-28.2,231.5-28.9,215z"/>
					<path fill="#DAF4F3" d="M-32.9,174.7c0,0-0.1,0.1-0.2,0.1c2.7,4.6,5.6,9.3,8.5,13.9c2,3.3,4.7,7.5,7.9,12.6
						c0.1,4.4,0.3,11.1,0.6,20.1c0.4,11.7,0.8,22.2,1.3,31.6c0.6-0.8,1.3-1.6,2.1-2.4c-0.1-11.2-0.2-25-0.2-41.5
						c2.1,1.8,4.3,3.9,6.5,6.3c1.3,1.4,3.3,3.3,5.9,5.7L13,300.5l4.3,1.7c0-0.1,0-0.2,0-0.3c-0.2-2.2-0.7-5.7-1.4-10.4l17.4,6.2
						c0.4,1.8,0.9,4.8,1.7,8.9c0.5,2.3,0.9,4.5,1.3,6.4c3.9,2,6.5,3.3,7.8,3.9c0.9,0.4,3.4,1.6,7.6,3.6l28.8,139.8l-4-46.1l11,7
						l59.7,6l23.4,55.4c0.3-1.2,0.8-2.7,1.6-4.5c-0.2-0.7-0.5-1.2-0.7-1.7c-0.9-2.2-3.2-7.2-6.7-14.9c5.1,1.8,13.4,5.1,25,9.9
						c-0.7-2.1-1.4-4.3-2.1-6.6c-6-2-14-4.7-23.8-8c-1.6-3.1-3-6.1-4.4-9c-4.3-8.9-7.7-17-10.1-24.2c-10.1-1-29.6-3-58.6-6.2
						c-5.5-3.1-11.3-6.3-17.3-9.6c-1.7-8.7-4.2-20.7-7.5-36.1c-4.3-20.2-7.7-37.9-10.4-53.3c-3.8-1.8-8.9-4.3-15.4-7.3
						c-0.1-0.8-0.2-1.5-0.4-2.3c-0.7-3.3-1.5-7.4-2.4-12.4c-7.3-3.3-14.6-6.5-21.7-9.7c-1.9-12.2-3.5-22.6-4.9-31.3
						c-2.6-15.7-5-29.4-7.4-40.9c-3.9-3.3-8.7-7.1-14.5-11.4c-2.2-5-4.2-9-5.9-12.1c-3.6-6.6-7.8-12.8-12.6-18.6
						C-31,173.5-32.1,174.4-32.9,174.7z"/>
					<path fill="#BEE7E6" d="M-46.6,193.1c-0.8,2.7-1.8,6.2-3.1,10.6c-1.8,6-3.3,11.5-4.6,16.6c-0.7,0.2-1.4,0.4-2.1,0.6
						c-5.3,1.7-11.8,5.4-19.6,11.1c-3.4,6.2-6.8,13.9-10.2,23.1v15.5c6.2-5.5,12.5-11.3,18.7-17.3c10-10.1,17.4-17.5,22.1-22.3
						c0.4-2.6,0.8-5.4,1.3-8.4c1.5-9.6,3.1-16.3,4.9-20.2c3.9,4.3,7.4,8.5,10.4,12.7c0.7,16.5,1.5,34.5,2.6,54
						c11.6,3.6,19.3,5.6,23,6.1l0,0c1.3,10.9,3.4,28,6.3,51.2c0.7,5.9,1.3,11.3,1.8,16.2c5,1.6,11.7,4,20.3,7.1
						c9.2,3,17.1,5,23.6,5.9C52.5,377.1,61.3,427,75.2,505h21.2c-1.7-11.3-4.1-24-7.2-38c-4.3-18.3-7.2-31-8.6-38.1
						c22.6,6.5,38,10.4,46.2,11.8c2.9,0.5,5.3,0.7,7.3,0.7c2.7,6.5,7.2,17.2,13.6,32.1c5.3,12.6,9.7,23.1,13.1,31.4h36.8
						c0-0.4,0-0.8-0.1-1.1c-0.6-7.5-3.1-18.4-7.6-32.6c-11.6-4.8-19.9-8.1-25-9.9c3.5,7.7,5.7,12.7,6.7,14.9
						c0.2,0.5,0.4,1.1,0.7,1.7c-0.7,1.8-1.3,3.3-1.6,4.5l-23.4-55.4l-59.7-6l-11-7l4,46.1L51.7,320.5c-4.2-2-6.8-3.1-7.6-3.6
						c-1.3-0.6-3.9-1.9-7.8-3.9c-0.4-2-0.9-4.1-1.3-6.4c-0.8-4.1-1.3-7.1-1.7-8.9L16,291.5c0.7,4.7,1.1,8.2,1.4,10.4
						c0,0.1,0,0.2,0,0.3l-4.3-1.7l-13.5-79.4c-2.7-2.4-4.7-4.3-5.9-5.7c-2.2-2.4-4.4-4.5-6.5-6.3c0,16.5,0.1,30.3,0.2,41.5
						c-0.7,0.9-1.4,1.7-2.1,2.4c-0.5-9.4-0.9-19.9-1.3-31.6c-0.3-9-0.5-15.8-0.6-20.1c-3.3-5.2-5.9-9.4-7.9-12.6
						c-2.9-4.6-5.8-9.3-8.5-13.9C-34.6,176.5-39.2,182.6-46.6,193.1z"/>
				</g>
			</g>
		</g>
		<g transform="matrix( 1, 0, 0, 1, 0,0) " clip-path="url(#SVGID_2_)">
			<g>
				<g id="Layer0_3_FILL_1_">
					<path fill="#A9DEDD" d="M505,445.6c-5.1,2.9-9.2,5-12.2,6.6c-2,5.2-5.2,12.9-9.6,23.1c-2.8,6.4-5.4,12.3-7.8,17.5h25.9
						c2.3-6.5,4.6-13.1,6.9-19.9c1.2-4.8,3.9-12.7,8.2-23.6c2.1-6.1,3.7-10.5,4.6-13.1C517.7,438.2,512.4,441.4,505,445.6
						 M674.2,276.9c-6.4,3-13.3,6.4-20.9,10.3c-15.9,8.1-26.5,13.2-31.8,15.2c-1.3,13-4.7,37.8-10.2,74.4
						c-5.2,35.1-8.9,60-10.9,74.8c-0.7-16.9-1.4-34.8-2.1-53.6c-1.2-33.2-1.8-54.6-1.9-64c-0.8,0.1-1.9,0.2-3.1,0.3
						c-1.1,4.6-3.9,15.7-8.5,33.3c-1.6,6.2-3.1,11.6-4.4,16.4c-1.2,0.7-2,1.1-2.4,1.3c-0.9,0.4-5.1,2.3-12.6,5.8
						c-5.3,12.4-13.1,31.5-23.4,57.2c-7.3,18.3-13.4,33.1-18.2,44.4h152.1c0.2-30.5,0.3-59.8,0.3-87.9
						C676.1,352.4,675.4,309.7,674.2,276.9z"/>
					<path fill="#BEE7E6" d="M674.2,276.9c-0.2-5.3-0.4-10.4-0.7-15.3c-7.8,4.2-17.9,9.5-30.2,16c-14.8,7.8-23.9,12.7-27.5,14.7
						c-0.6,5.3-2.9,22.3-6.8,51c-0.3,1.9-0.5,3.7-0.7,5.5c-0.5,0.4-0.9,0.7-1.2,0.8c-1.1,0.6-2.3,1.2-3.8,1.8
						c0-3.8,0.2-9.7,0.6-17.9c0.3-7.7,0.5-13.6,0.6-17.9c-1.5,0.9-3,1.7-4.7,2.6c-2.9,1.5-5.7,2.7-8.2,3.7c-0.8,5.9-2.9,16-6.2,30.4
						c-1.5,6.2-2.6,11.3-3.5,15.4c-0.2,0.2-0.4,0.5-0.6,0.7c-1.2,1.5-2.3,2.8-3.2,3.9c-4.9,0.7-10.9,1.6-18.1,2.7
						c-5.4,9.8-11.1,20.5-17.1,32.1c-11.9,22.9-21.9,43.7-30.1,62.4c-0.5,0.4-1.4,1.1-2.7,2c-0.7,0.5-1.3,1-1.9,1.4
						c-2.4,6.8-4.7,13.5-6.9,19.9h22.6c4.8-11.3,10.9-26.1,18.2-44.4c10.3-25.8,18.1-44.8,23.4-57.2c7.5-3.5,11.7-5.4,12.6-5.8
						c0.4-0.2,1.2-0.6,2.4-1.3c1.3-4.8,2.8-10.2,4.4-16.4c4.6-17.6,7.4-28.7,8.5-33.3c1.2-0.2,2.3-0.3,3.1-0.3
						c0.1,9.4,0.8,30.8,1.9,64c0.6,18.8,1.3,36.6,2.1,53.6c2.1-14.8,5.7-39.7,10.9-74.8c5.5-36.6,8.9-61.5,10.2-74.4
						c5.3-2,15.8-7.1,31.8-15.2C660.8,283.3,667.8,279.8,674.2,276.9 M485.5,441.3c-0.8,1.3-1.6,2.6-2.5,3.9
						c-8.7,13.8-18.3,29.6-28.8,47.6h21.1c2.4-5.2,5-11.1,7.8-17.5c4.4-10.2,7.6-17.9,9.6-23.1c3.1-1.5,7.2-3.7,12.2-6.6
						c7.4-4.2,12.7-7.4,15.9-9.5c-0.9,2.6-2.4,7-4.6,13.1c0.1-0.3,0.3-0.6,0.4-0.9c1.9-5,3.6-9.3,4.9-12.8c1.2-3.1,2.2-5.5,2.9-7.3
						c-6,1.8-10.7,3.2-14.1,4.3C504.6,434.5,496.4,437.4,485.5,441.3z"/>
					<path fill="#DAF4F3" d="M673.5,261.6c0-0.6-0.1-1.2-0.1-1.8c-4.2,1.7-10.1,4.1-17.7,7.1c-14.3,5.8-29.2,12-44.7,18.6
						c-0.4,1.2-0.8,2.5-1.2,3.8c-1.3,4.4-3.1,11.4-5.5,21.1c-2.6,1.2-8.1,4-16.4,8.3c-0.5,3.9-1.7,10.7-3.5,20.4
						c-0.8,4.4-2,10.6-3.6,18.8c-2.2,3.2-4.4,6.5-6.6,9.9c-6.2-0.2-11.5-0.4-15.9-0.8c-3.4,5.4-8.1,12.9-14.3,22.6
						c-9.6,15.1-15.2,24.5-16.7,28.3c-4.2,3.7-7.1,5.6-8.6,5.6c-1.4,0-7.6,2.1-18.7,6.3l-9.6,3.7c-1.5,2.4-3.2,5.1-5,7.9
						c10.9-3.9,19.2-6.8,24.8-8.7c3.4-1.1,8.1-2.6,14.1-4.3c-0.7,1.8-1.7,4.3-2.9,7.3c-1.3,3.5-2.9,7.7-4.9,12.8
						c-0.1,0.3-0.2,0.6-0.4,0.9c-4.2,10.9-7,18.8-8.2,23.6c0.6-0.4,1.2-0.9,1.9-1.4c1.2-0.9,2.1-1.6,2.7-2
						c8.2-18.7,18.2-39.5,30.1-62.4c6.1-11.6,11.8-22.3,17.1-32.1c7.2-1.2,13.2-2.1,18.1-2.7c0.9-1.1,2-2.4,3.2-3.9
						c0.2-0.2,0.4-0.5,0.6-0.7c0.9-4,2-9.2,3.5-15.4c3.3-14.4,5.4-24.5,6.2-30.4c2.6-1,5.3-2.2,8.2-3.7c1.7-0.9,3.2-1.7,4.7-2.6
						c0,4.3-0.2,10.2-0.6,17.9c-0.3,8.1-0.5,14.1-0.6,17.9c1.5-0.6,2.7-1.1,3.8-1.8c0.3-0.2,0.7-0.4,1.2-0.8
						c0.2-1.8,0.5-3.6,0.7-5.5c3.9-28.7,6.1-45.7,6.8-51c3.6-2.1,12.7-7,27.5-14.7C655.6,271.1,665.7,265.8,673.5,261.6z"/>
				</g>
			</g>
		</g>
		<g transform="matrix( 1, 0, 0, 1, 0,0) " clip-path="url(#SVGID_2_)">
			<g>
				<g id="Layer0_4_FILL_1_">
					<path fill="#BFE7E5" d="M805.7,491.7v-2.9H-169v2.9h-5.3V636h974.7V491.7H805.7z"/>
				</g>
			</g>
		</g>
		<g transform="matrix( 1, 0, 0, 1, 0,0) " clip-path="url(#SVGID_2_)">
			<g>
				<g id="Layer0_4_MEMBER_0_FILL_1_">
					<path fill="#E5FBFA" d="M77.9,489.7v1.8l275.1,1.2l225.6-0.3c0.3-0.1,2.2-0.3,5.7-0.4c3.5-0.2,5.3-0.4,5.4-0.4
						c-0.1-0.3-1.9-0.5-5.3-0.9c-3.7-0.3-5.6-0.5-5.8-0.6l-196.5-1.2c0,0.1-3.7,0.3-11.1,0.4c-10.7,0.3-16.7,0.4-18.1,0.4
						l-273.9,0.6c-0.1-0.2-0.3-0.4-0.7-0.6L77.9,489.7z"/>
				</g>
			</g>
		</g>
		<g clip-path="url(#SVGID_2_)">
			<g transform="matrix( 1, 0, 0, 1, 0,0) ">
				<g>
					<g id="Layer0_5_FILL_1_">
						<path fill="#71B4B0" fill-opacity="0.502" d="M496.5,574.5c0.2,4.3,0.5,7.6,1,10.2c6.2-4.5,11.2-7.9,14.9-10.2
							c5.1-3.1,10.2-5.6,15.1-7.6c-0.3-0.4-0.3-5.1,0.1-14.1c0.4-9,0.6-13.6,0.4-14.1h-31.8C496.3,560.1,496.4,572,496.5,574.5
							 M145.3,591.7c-1.8-9.5-3.4-18.8-4.6-27.9l-24.9,1.8c0,2.4,0.6,7.9,1.8,16.6c0.6,4.5,1.3,8.4,1.9,11.8
							c4.2,1.2,10.3,2.1,18.3,2.8c2.9,0.2,5.7,0.5,8.5,0.6C146,595.6,145.7,593.7,145.3,591.7z"/>
						<path fill="#8DCECA" fill-opacity="0.502" d="M497.5,584.9l-0.1-0.2c-0.5-2.5-0.8-5.9-1-10.2c-0.1-2.6-0.1-14.5-0.1-35.7H474
							v30.7c-0.7,11.6-0.7,21.1,0,28.7c1.2-0.5,4.1-1.3,8.6-2.2c4.8-1,8.4-1.8,11-2.5l4.9-2L497.5,584.9L497.5,584.9z"/>
						<path fill="#8EC9C5" fill-opacity="0.502" d="M140.7,563.7c1.3,9.2,2.8,18.5,4.6,27.9c0.4,2,0.7,3.9,0.9,5.6
							c0.4,2.9,0.6,5.2,0.5,7c14.2,3.7,29.8,5.8,46.8,6.4c11.3,0.4,29.2,0.5,53.9,0.4c48.2,1,83.7,1.5,106.4,1.6
							c11.2-1.6,28.8-3.1,52.8-4.5c19.1-1.1,41.9-4.4,68.6-10.1c0-0.1-0.4,0-1.1,0.2c-0.7-7.6-0.7-17.1,0-28.7v-30.7L140.7,563.7z"
							/>
					</g>
				</g>
			</g>
			<g transform="matrix( 1, 0, 0, 1, 0,0) ">
				<g>
					<g id="Layer0_6_FILL_1_">
						<path fill="#97D7D3" d="M498,543.8C498,543.8,498,543.8,498,543.8c-9,6.2-16,11.1-21.1,14.5c-0.7,0.5-1.4,1-2.1,1.5l-1.5,18.8
							c2-1.3,5.7-3.7,11-7.2c5-3.3,9.2-6.1,12.6-8.5l0.2-8.2L498,543.8 M167.1,548.2H167L114,544l2.3,25.2H141l-1.5-15.6l12.4-2.4
							L167.1,548.2 M529.8,521.7c-0.1,0.1-4.4,3-12.9,8.9l-1.8,18.8c8.2-5.7,12.4-8.7,12.8-8.9L529.8,521.7z"/>
						<path fill="#AEE5E2" d="M141,569.2l1.1,9.4c110.4,8.9,220.7,8.9,331.1,0l1.5-18.8l-69-4.1l-93.8,5.2c-30.6-2.7-60-5.3-88-7.7
							c-10.9-0.4-39.1-0.3-84.4,0.3L141,569.2z"/>
						<path fill="#F2FFFD" d="M152,551.1l-12.4,2.4c45.4-0.6,73.5-0.7,84.4-0.3c28,2.4,57.4,5,88,7.7l93.8-5.2l69,4.1
							c0.7-0.5,1.4-1,2.1-1.5l-71.1-4.9l-93.8,5.3c-30.6-2.7-60-5.3-88-7.7C214.1,550.6,190.1,550.7,152,551.1z"/>
						<path fill="#D5F2F0" d="M188.3,516.3c-9.5,1-18.4,1.8-26.7,2.6L114,544l52.9,4.3h0.1l-15.1,2.9c38.1-0.4,62.1-0.5,72-0.1
							c28,2.4,57.4,5,88,7.7l93.8-5.3l71.1,4.9c5.1-3.4,12.2-8.3,21.1-14.5c-4.4-0.7-10.9-1.6-19.3-2.7c3.6-1,9.5-2.6,17.7-4.8
							c9.1-2.5,16-4.4,20.6-5.7c8.5-5.9,12.7-8.9,12.9-8.9c-21-3.1-49.7-7.5-86.1-13.3c-0.6-0.1-1.1-0.2-1.7-0.3
							c-4.3-0.2-14.9-0.6-31.8-1.2c-15.3-0.6-26.5-0.9-33.6-0.9l-55.3,0.9c-11.2-0.2-21.6-0.4-31.1-0.4
							C253.8,509.9,219.7,513.2,188.3,516.3z"/>
						<path fill="#7CC2BD" d="M498,543.8C498,543.8,498,543.8,498,543.8l-0.9,10.9c5.6-1.5,11.6-3.3,18.1-5.3l1.8-18.8
							c-4.6,1.3-11.5,3.2-20.6,5.7c-8.1,2.3-14,3.9-17.7,4.8C487.1,542.2,493.5,543.1,498,543.8z"/>
					</g>
				</g>
			</g>
			<g transform="matrix( 1, 0, 0, 1, 0,0) ">
				<g>
					<g id="Layer0_6_MEMBER_0_FILL_1_">
						<path fill="#AEE5E2" d="M135.8,562c0.5-0.6,0.8-1.5,0.8-2.7c0-0.9-0.7-2.3-2.2-4.1c-1.5-1.9-3.1-3.3-4.8-4.4
							c-4.7-2.8-7.1-0.9-7.1,5.8c0,0.2,0,1.4,0.1,3.7c0.8,2.2,3.1,3.3,6.9,3.3C132.7,563.7,134.7,563.1,135.8,562z"/>
						<path fill="#8AD9D4" d="M504.9,549.9c1.9,0,3.6-0.9,5.1-2.8c1.3-1.5,1.9-2.7,1.9-3.5c0-5.8-1.9-8.2-5.6-7.3
							c-1.4,0.3-2.7,1.1-3.9,2.2c-1.2,1.1-1.8,2.2-1.8,3.1c0,0.1,0.2,1.5,0.5,4.2C501.8,548.5,503,549.9,504.9,549.9z"/>
						<path fill="#CDF9F6" d="M181.7,567.4c0.5-1,0.7-2.2,0.7-3.6c0-3-1.3-4.3-4-3.8c-2.7,0.5-4.1,2.5-4.1,6c0,0.1,0.1,0.7,0.4,1.9
							c0.6,1.1,1.8,1.7,3.4,1.7C179.9,569.6,181,568.9,181.7,567.4 M265.8,570.7c0.5-0.7,0.8-1.4,0.8-2.1c0-2.2-2-3.8-5.9-4.7
							c-3.9-0.9-5.9,0.3-5.9,3.5c0,3.2,2.6,4.8,7.9,4.8C264.1,572.2,265.1,571.7,265.8,570.7 M189.3,563.7c0,2.9,3.5,5.2,10.4,6.9
							c7.7,1.8,19.4,2.7,35.1,2.7c5.8,0,9.9-0.5,12.1-1.4c1.9-0.8,2.9-2.1,2.9-4.1c0-1.9-4.2-4.1-12.7-6.7
							c-6.9-2.1-11.7-3.3-14.4-3.6h-15.2c-7.6,0.8-12.3,1.5-14,2C190.7,560.2,189.3,561.6,189.3,563.7 M430.3,569.5
							c0.8-1.4,1.3-2.5,1.3-3.3c0-3-1.4-4.2-4.2-3.5c-2.8,0.7-4.3,2.6-4.3,5.8c0,0.1,0.1,0.7,0.4,1.9c0.6,1.2,1.6,1.7,3.2,1.7
							C428.1,572.2,429.3,571.3,430.3,569.5 M389,571.5c4.5,1.2,11.1,1.8,19.8,1.8c5.3,0,9-0.7,10.9-2.1c1.1-0.9,1.7-2.1,1.7-3.8
							c0-2.8-2-4.8-6.1-6.1c-3.5-1.1-7.9-1.6-13.2-1.3c-5,0.3-9.5,1-13.2,2.3c-4,1.4-6.1,2.9-6.1,4.6
							C382.7,568.9,384.8,570.4,389,571.5z"/>
					</g>
				</g>
			</g>
			<g transform="matrix( 1, 0, 0, 1, 0,0) ">
				<g>
					<g id="Layer0_8_FILL_1_">
						<path fill="#D7F6F5" d="M535.7,559.5c-0.1,0-0.1,0-0.1,0c-2-0.3-3.5-0.2-4.6,0.4c-0.8,0.4-1.3,1-1.3,1.8c0,0.7,0,1,0.1,0.9
							l1.4,0.5c1.1,0,2.2-0.4,3.2-1.2c0.9-0.7,1.3-1.3,1.3-1.6C535.8,559.8,535.7,559.5,535.7,559.5 M538,546.6
							c-0.1-0.1-0.2-0.2-0.2-0.3c-0.6,0-1.8,0.6-3.4,1.7c-1.3,0.9-2.5,1.8-3.6,2.8c-1.6,1.5-3.4,2.7-5.4,3.8
							c-1.6,0.8-2.4,1.3-2.4,1.4c0,0.7,0.1,0.9,0.4,0.4c1.6-0.5,4.4-1.9,8.4-4.3c4.2-2.4,6.3-4,6.3-4.7
							C538.2,547,538.1,546.7,538,546.6 M481.8,587c-0.1,0-0.2,0-0.2,0c-0.8-0.1-2.4,0.1-4.8,0.8c-2.5,0.7-3.7,1.3-3.7,1.9
							c0,1,0.4,1.4,1.3,1.4c1.5,0,3.1-0.3,4.7-0.9c1.8-0.7,2.8-1.5,2.8-2.4C481.9,587.3,481.9,587.1,481.8,587 M417.5,592
							c17.2-1.3,29.4-2.5,36.7-3.7c8.6-1.4,16.2-3.5,22.7-6.3c-14.8,1.8-23.2,2.8-25.2,3.1c-10.4,1.4-21.9,3.3-34.5,5.7
							C417.2,591.1,417.3,591.4,417.5,592 M237.6,596.7c0.8,0,2.2-0.3,4.4-0.9c-2.3-1-9.6-1.8-22.1-2.2c-12.3-0.5-18.4-0.3-18.4,0.4
							c0,0.4,0,0.7,0.1,0.8c0.1,0.1,0.1,0.1,0.1,0.2c1.8,0.1,7.2,0.5,16.2,1.3C221.7,596.5,228.3,596.7,237.6,596.7 M87.8,583.5
							c1.6-0.6,2.4-1,2.5-1.1c-0.9-0.6-1.6-1-2.1-1.2c-0.9-0.4-1.4,0-1.4,1.1c0,0.5,0.1,0.8,0.3,0.9
							C87.2,583.4,87.5,583.5,87.8,583.5 M101,581.6c1,0,1.8-0.4,2.6-1.1c-2.8-1.1-4.7-1.9-5.7-2.2c-1.7-0.5-2.6,0-2.6,1.4
							c0,0.4,0.8,0.9,2.3,1.3C99,581.4,100.1,581.6,101,581.6 M102.2,574.2l0.1,0.4c0,0,1.5,0.5,4.3,1.5c3.6,1,7.4,1.5,11.3,1.5
							c1.1,0,3-0.3,5.6-0.8c-3.8-0.7-8.3-1.4-13.6-2.2c-4.9-0.7-7.4-1.1-7.6-1.1L102.2,574.2 M120.3,568.2c-2.8-0.3-4.6-0.4-5.4-0.4
							c-1.1,0-1.9,0.5-2.3,1.4c2,0.7,3.8,1.1,5.4,1.4c2.8,0.5,6.5,0.7,10.9,0.7c0.5,0,1.7-0.1,3.5-0.3c1.8-0.2,2.9-0.3,3.3-0.4
							c-0.5-0.3-1.9-0.7-4.2-1.1C128.6,568.9,124.8,568.5,120.3,568.2 M166.9,581.1c2.7-0.3,4.7-0.5,5.9-0.6
							c-2.5-0.2-10.4-1.1-23.8-2.6c-6-0.7-9-0.5-9,0.5c0,0.9,2.5,1.6,7.6,2.3c4.6,0.6,9.3,0.9,14.2,0.9
							C162.4,581.5,164.1,581.4,166.9,581.1 M234.5,585.9c11.8-0.4,19.5-0.2,23.2,0.6l22,0.1l1.9,0.2h34.1c5.8-0.4,9.4-0.8,10.8-1.1
							h21.8c0.6,0,3.3-0.4,8.2-0.9c6.6-0.5,14.6-0.8,24.1-0.8l26.4-0.2c0.4-0.1,1.6-0.3,3.7-0.6c2.1-0.4,3.5-0.7,4.3-0.9
							c0-0.1-0.1-0.2-0.3-0.3l-0.3-0.1c-3.8-0.2-6.1-0.2-6.9-0.1l-26.4,0.1c-9.3,0-16.4,0.2-21.6,0.6c-1.3,0.1-4,0.4-8.1,0.9h-24.6
							c-6,0.5-9.6,0.9-10.8,1.2H281l-1.8-0.3l-21.9-0.1c-0.5,0-2.4-0.1-5.6-0.3c-3.2-0.2-5.1-0.3-5.7-0.3c-1.9-0.3-3.5-0.5-5-0.6
							c-2.8-0.1-5.1,0.5-6.8,1.9L234.5,585.9 M494.8,574.8c-0.6,0-1.8,0.5-3.5,1.6c-1.7,1.1-2.6,1.8-2.6,2.1c0,0.5,0.1,0.8,0.3,0.9
							c0.1,0.1,0.4,0.1,0.7,0.2c0.4-0.2,1.4-0.8,3.2-1.9c1.6-1,2.4-1.7,2.4-2.1c0-0.5,0-0.7-0.1-0.7
							C495.1,575,495,574.9,494.8,574.8 M492.1,569.5c2.3-1.7,4.7-4,7.1-7c-0.8-0.3-2.3,0.4-4.5,2c-0.9,0.7-2.4,2-4.6,3.8
							c-2.4,1.1-4.7,2.2-6.9,3.3c-4.4,2.1-6.6,3.5-6.6,4.1c0,0.5,0.1,0.8,0.3,0.9c0.1,0.1,0.4,0.1,0.8,0.2
							C483.6,574.8,488.3,572.4,492.1,569.5 M513,553.5c12.8-7.5,19.2-12.6,19.2-15.4c0-1.3-3.3,0.7-10,5.9c-6.7,5.2-10,8-10,8.3
							c0,0.5,0.1,0.8,0.2,0.9C512.5,553.3,512.7,553.4,513,553.5z"/>
					</g>
				</g>
			</g>
		</g>
		<g transform="matrix( 1, 0, 0, 1, 0,0) " clip-path="url(#SVGID_2_)">
			<g>
				<g id="Layer0_9_FILL_1_">
					<path fill="#D5F4F3" d="M503.5,501.1c-0.1-0.3-0.6-0.6-1.6-0.9c-1.1-0.3-1.8-0.5-2-0.6c-12.6-0.5-19.1-0.7-19.5-0.5
						c0,1.3,0.2,2.3,0.5,2.9l19,0.3c1.1,0,2-0.1,2.6-0.3C502.9,501.7,503.2,501.5,503.5,501.1 M142.4,503.7c0,0.3,0.3,0.8,1,1.5
						c7.1,0.2,10.8,0.2,11.1,0c-4.3-0.4-7.6-0.8-9.9-1.1C143.3,503.9,142.5,503.7,142.4,503.7 M141.1,503.5c-0.7-0.3-1-0.6-1.1-0.8
						h-0.8v1.5c1.7,0.2,2.7,0.2,3.1,0C142.2,504.1,141.8,503.8,141.1,503.5 M20.3,499.5l-0.3-0.8c-1.9,0.1-5,0-9.3-0.3
						c-2.9-0.2-4.6-0.1-4.9,0.3c2.7,0.7,7.4,1.3,14,1.8L20.3,499.5 M759.9,532.7c-1.6-0.4-2.9-0.7-3.9-1.1c-0.7-0.3-1.1-0.4-1.2-0.4
						v1.5C757.8,532.9,759.5,532.9,759.9,532.7 M722.4,585.2c0.1,0,0.3-0.1,0.4-0.4c14-0.7,22.2-0.7,24.6-0.3
						c-0.2-0.3-0.7-0.6-1.4-1l-1.1-0.5c-7,0.2-12.8,0.2-17.4,0.1c-3.3-0.2-5-0.3-5.3-0.3c0,0.1-0.1,0-0.2-0.4c0-0.1-0.1,0.3-0.1,1.3
						C722,584.8,722.1,585.3,722.4,585.2 M616.6,588.7l-0.5-0.7h-1c0,0.8,0.1,1.5,0.3,2h8.6l0.5-0.2
						C624.3,589.4,621.7,589.1,616.6,588.7 M556.1,588.7l0.3-0.7c-13.2-0.5-22.1-0.7-26.5-0.7v1.5
						C546.9,588.4,555.6,588.4,556.1,588.7 M591.3,529.7l-0.5-0.8h-1c0,0.8,0.1,1.5,0.3,2h12.6l0.5-0.3
						C603,530.4,599,530.1,591.3,529.7 M-121.3,510.3c-5.6-0.4-8.5-0.6-8.6-0.7c0,0.1-0.1,0.3-0.4,0.6c-0.3,0.3-0.5,0.6-0.6,0.9
						l0.5,1c11.3-0.2,17-0.4,17.4-0.7C-113.1,511.1-115.9,510.7-121.3,510.3 M112.9,607c3,0.2,4.7,0.2,5,0c-1.5-0.4-2.8-0.8-3.8-1.1
						c-0.7-0.3-1.1-0.4-1.2-0.4V607 M84.4,608c-0.3-0.6-7.6-1-21.9-1.3L-54,606.5c-0.3,0-0.5,0.1-0.8,0.4c-0.3,0.2-0.6,0.5-0.7,0.9
						c0.2,0.3,4.8,0.6,13.9,0.9c4.5,0.1,9,0.2,13.5,0.3l90.6-0.3C76.5,608.5,83.8,608.3,84.4,608 M-117,556
						c-16.4,0.1-27.3,0.1-32.6,0.1c-0.2-0.3-0.5-0.5-1-0.5v1.5l66.1-0.5v0.5c0.5,0,0.8-0.3,1-0.7C-90.6,556.1-101.8,555.9-117,556
						 M75.1,548.2c-4.7-0.3-12.1-0.4-22.2-0.4c-10.9,0.1-18.1,0.1-21.6,0.1c-0.2-0.3-0.5-0.5-1-0.5v1.5l43.8-0.5v0.5
						C74.6,549,75,548.7,75.1,548.2 M85.1,518.5l0.3-0.8c-5.1-0.5-8.5-0.7-10.3-0.7v1.5C81.3,518.2,84.7,518.2,85.1,518.5
						 M47.2,517.7l0.5-0.3c-0.2-0.3-9.8-0.7-29-1h-35.6c-19.2,0.7-38.7,0.8-58.5,0.3l-0.3-0.7h-0.8v1.5l37.1,1.3l3.8-0.7L47.2,517.7
						 M697.2,555.4l0.5-0.3c-0.2-0.3-34.4-0.7-102.7-1c-0.2-0.3-0.5-0.5-1-0.5v1.5L697.2,555.4 M565.2,507.9c-0.5,0-0.8,0.3-1,1
						c0.1,0.2,5.1,0.4,15.1,0.5c-5.2-0.2-7.9-0.3-7.9-0.5c0.1-0.5,0.4-0.9,0.7-1H565.2 M572.1,507.9h1.9h-1.6
						C572.3,507.9,572.2,507.9,572.1,507.9 M635.6,509.8c-1.1,0-2.2,0-3.3,0c0.7,0,1.3,0.1,2,0.1
						C634.7,509.8,635.1,509.8,635.6,509.8 M689.1,509.6l0.5-0.3c-0.2-0.3-16.3-0.7-48.2-1l-8.4-0.1l1.3,0.1c11,0.3,16.6,0.7,16.8,1
						c-0.3,0.2-5.5,0.3-15.4,0.4c1.9,0,3.9,0.1,5.8,0.1L689.1,509.6 M737.3,505.3c1.5,0.6,2.5,0.9,3.2,1.1c-2.3-1.1-3.7-1.6-4-1.6
						C735.5,504.5,735.8,504.7,737.3,505.3z"/>
				</g>
			</g>
		</g>
		<g clip-path="url(#SVGID_2_)">
			
				<use xlink:href="#New_Symbol"  width="7.6" height="7.6" x="-3.8" y="-3.8" transform="matrix(0.5625 0 0 -0.5625 -68.4121 65.4931)" overflow="visible"/>
			
				<use xlink:href="#New_Symbol"  width="7.6" height="7.6" x="-3.8" y="-3.8" transform="matrix(0.478 0 0 -0.478 -39.1941 60.9875)" overflow="visible"/>
			
				<use xlink:href="#New_Symbol"  width="7.6" height="7.6" x="-3.8" y="-3.8" transform="matrix(0.5527 0 0 -0.5527 -5.55 58.7173)" overflow="visible"/>
			
				<use xlink:href="#New_Symbol"  width="7.6" height="7.6" x="-3.8" y="-3.8" transform="matrix(0.698 0 0 -0.698 18.4867 103.5878)" overflow="visible"/>
			
				<use xlink:href="#New_Symbol"  width="7.6" height="7.6" x="-3.8" y="-3.8" transform="matrix(0.9405 0 0 -0.9405 12.8542 143.5788)" overflow="visible"/>
			
				<use xlink:href="#New_Symbol"  width="7.6" height="7.6" x="-3.8" y="-3.8" transform="matrix(1.1289 0 0 -1.1289 -26.7839 190.3729)" overflow="visible"/>
			
				<use xlink:href="#New_Symbol"  width="7.6" height="7.6" x="-3.8" y="-3.8" transform="matrix(1.0856 0 0 -1.0856 -38.0601 221.4371)" overflow="visible"/>
			
				<use xlink:href="#New_Symbol"  width="7.6" height="7.6" x="-3.8" y="-3.8" transform="matrix(0.8733 0 0 -0.8733 -2.7014 248.0606)" overflow="visible"/>
			
				<use xlink:href="#New_Symbol"  width="7.6" height="7.6" x="-3.8" y="-3.8" transform="matrix(0.9827 0 0 -0.9827 32.642 285.7148)" overflow="visible"/>
			
				<use xlink:href="#New_Symbol"  width="7.6" height="7.6" x="-3.8" y="-3.8" transform="matrix(1.0231 0 0 -1.0231 28.7854 340.0638)" overflow="visible"/>
			
				<use xlink:href="#New_Symbol"  width="7.6" height="7.6" x="-3.8" y="-3.8" transform="matrix(1.0526 0 0 -1.0526 94.5697 327.8244)" overflow="visible"/>
			
				<use xlink:href="#New_Symbol"  width="7.6" height="7.6" x="-3.8" y="-3.8" transform="matrix(1.0489 0 0 -1.0489 134.3847 274.7195)" overflow="visible"/>
			
				<use xlink:href="#New_Symbol"  width="7.6" height="7.6" x="-3.8" y="-3.8" transform="matrix(0.9844 0 0 -0.9844 179.5111 311.9604)" overflow="visible"/>
			
				<use xlink:href="#New_Symbol"  width="7.6" height="7.6" x="-3.8" y="-3.8" transform="matrix(0.87 0 0 -0.87 226.2035 318.5984)" overflow="visible"/>
			
				<use xlink:href="#New_Symbol"  width="7.6" height="7.6" x="-3.8" y="-3.8" transform="matrix(0.6231 0 0 -0.6231 292.086 279.288)" overflow="visible"/>
			
				<use xlink:href="#New_Symbol"  width="7.6" height="7.6" x="-3.8" y="-3.8" transform="matrix(0.673 0 0 -0.673 359.7667 302.3444)" overflow="visible"/>
			
				<use xlink:href="#New_Symbol"  width="7.6" height="7.6" x="-3.8" y="-3.8" transform="matrix(0.7525 0 0 -0.7525 441.9591 295.8303)" overflow="visible"/>
			
				<use xlink:href="#New_Symbol"  width="7.6" height="7.6" x="-3.8" y="-3.8" transform="matrix(0.9836 0 0 -0.9836 520.8967 305.1475)" overflow="visible"/>
			
				<use xlink:href="#New_Symbol"  width="7.6" height="7.6" x="-3.8" y="-3.8" transform="matrix(1.0799 0 0 -1.0799 580.2871 320.2219)" overflow="visible"/>
			
				<use xlink:href="#New_Symbol"  width="7.6" height="7.6" x="-3.8" y="-3.8" transform="matrix(0.9229 0 0 -0.9229 593.4929 245.6991)" overflow="visible"/>
			
				<use xlink:href="#New_Symbol"  width="7.6" height="7.6" x="-3.8" y="-3.8" transform="matrix(0.5545 0 0 -0.5545 549.8312 175.7755)" overflow="visible"/>
			
				<use xlink:href="#New_Symbol"  width="7.6" height="7.6" x="-3.8" y="-3.8" transform="matrix(1.0704 0 0 -1.0704 591.3531 102.9534)" overflow="visible"/>
			
				<use xlink:href="#New_Symbol"  width="7.6" height="7.6" x="-3.8" y="-3.8" transform="matrix(1.0681 0 0 -1.0681 575.7183 62.4689)" overflow="visible"/>
			
				<use xlink:href="#New_Symbol"  width="7.6" height="7.6" x="-3.8" y="-3.8" transform="matrix(0.9346 0 0 -0.9346 627.2505 102.3565)" overflow="visible"/>
			
				<use xlink:href="#New_Symbol"  width="7.6" height="7.6" x="-3.8" y="-3.8" transform="matrix(0.7937 0 0 -0.7937 607.3378 182.6125)" overflow="visible"/>
			
				<use xlink:href="#New_Symbol"  width="7.6" height="7.6" x="-3.8" y="-3.8" transform="matrix(1.0705 0 0 -1.0705 672.4661 193.6186)" overflow="visible"/>
			
				<use xlink:href="#New_Symbol"  width="7.6" height="7.6" x="-3.8" y="-3.8" transform="matrix(0.8443 0 0 -0.8443 688.9879 126.148)" overflow="visible"/>
			
				<use xlink:href="#New_Symbol"  width="7.6" height="7.6" x="-3.8" y="-3.8" transform="matrix(0.7005 0 0 -0.7005 708.3298 64.4664)" overflow="visible"/>
			
				<use xlink:href="#New_Symbol"  width="7.6" height="7.6" x="-3.8" y="-3.8" transform="matrix(0.844 0 0 -0.844 720.6989 12.6986)" overflow="visible"/>
			
				<use xlink:href="#New_Symbol"  width="7.6" height="7.6" x="-3.8" y="-3.8" transform="matrix(1.0184 0 0 -1.0184 600.5936 31.5041)" overflow="visible"/>
			
				<use xlink:href="#New_Symbol"  width="7.6" height="7.6" x="-3.8" y="-3.8" transform="matrix(0.8856 0 0 -0.8856 528.2404 79.7916)" overflow="visible"/>
			
				<use xlink:href="#New_Symbol"  width="7.6" height="7.6" x="-3.8" y="-3.8" transform="matrix(1.1774 0 0 -1.1774 433.2313 59.1912)" overflow="visible"/>
			
				<use xlink:href="#New_Symbol"  width="7.6" height="7.6" x="-3.8" y="-3.8" transform="matrix(1.0884 0 0 -1.0884 385.6303 71.4929)" overflow="visible"/>
			
				<use xlink:href="#New_Symbol"  width="7.6" height="7.6" x="-3.8" y="-3.8" transform="matrix(0.744 0 0 -0.744 321.4485 93.0387)" overflow="visible"/>
			
				<use xlink:href="#New_Symbol"  width="7.6" height="7.6" x="-3.8" y="-3.8" transform="matrix(0.9358 0 0 -0.9358 260.4346 68.0224)" overflow="visible"/>
			
				<use xlink:href="#New_Symbol"  width="7.6" height="7.6" x="-3.8" y="-3.8" transform="matrix(1.1157 0 0 -1.1157 176.4563 72.825)" overflow="visible"/>
			
				<use xlink:href="#New_Symbol"  width="7.6" height="7.6" x="-3.8" y="-3.8" transform="matrix(1.0906 0 0 -1.0906 100.3014 90.2916)" overflow="visible"/>
			
				<use xlink:href="#New_Symbol"  width="7.6" height="7.6" x="-3.8" y="-3.8" transform="matrix(1.1606 0 0 -1.1606 71.1015 43.7178)" overflow="visible"/>
			
				<use xlink:href="#New_Symbol"  width="7.6" height="7.6" x="-3.8" y="-3.8" transform="matrix(1.0668 0 0 -1.0668 64.8511 128.4415)" overflow="visible"/>
			
				<use xlink:href="#New_Symbol"  width="7.6" height="7.6" x="-3.8" y="-3.8" transform="matrix(1.0148 0 0 -1.0148 174.2383 139.5691)" overflow="visible"/>
			
				<use xlink:href="#New_Symbol"  width="7.6" height="7.6" x="-3.8" y="-3.8" transform="matrix(0.7613 0 0 -0.7613 204.8871 168.755)" overflow="visible"/>
			
				<use xlink:href="#New_Symbol"  width="7.6" height="7.6" x="-3.8" y="-3.8" transform="matrix(0.6068 0 0 -0.6068 236.1942 210.7838)" overflow="visible"/>
			
				<use xlink:href="#New_Symbol"  width="7.6" height="7.6" x="-3.8" y="-3.8" transform="matrix(0.5534 0 0 -0.5534 319.5856 123.5076)" overflow="visible"/>
			
				<use xlink:href="#New_Symbol"  width="7.6" height="7.6" x="-3.8" y="-3.8" transform="matrix(0.6805 0 0 -0.6805 347.4703 175.0606)" overflow="visible"/>
			
				<use xlink:href="#New_Symbol"  width="7.6" height="7.6" x="-3.8" y="-3.8" transform="matrix(0.7872 0 0 -0.7872 380.9012 204.0459)" overflow="visible"/>
			
				<use xlink:href="#New_Symbol"  width="7.6" height="7.6" x="-3.8" y="-3.8" transform="matrix(0.7544 0 0 -0.7544 460.6329 127.2064)" overflow="visible"/>
			
				<use xlink:href="#New_Symbol"  width="7.6" height="7.6" x="-3.8" y="-3.8" transform="matrix(0.6459 0 0 -0.6459 476.4829 180.8079)" overflow="visible"/>
			
				<use xlink:href="#New_Symbol"  width="7.6" height="7.6" x="-3.8" y="-3.8" transform="matrix(0.6196 0 0 -0.6196 518.3682 203.2155)" overflow="visible"/>
			
				<use xlink:href="#New_Symbol"  width="7.6" height="7.6" x="-3.8" y="-3.8" transform="matrix(1.0517 0 0 -1.0517 599.9626 271.9871)" overflow="visible"/>
			
				<use xlink:href="#New_Symbol"  width="7.6" height="7.6" x="-3.8" y="-3.8" transform="matrix(0.9244 0 0 -0.9244 594.7216 350.351)" overflow="visible"/>
			
				<use xlink:href="#New_Symbol"  width="7.6" height="7.6" x="-3.8" y="-3.8" transform="matrix(0.9495 0 0 -0.9495 506.7529 416.8711)" overflow="visible"/>
			
				<use xlink:href="#New_Symbol"  width="7.6" height="7.6" x="-3.8" y="-3.8" transform="matrix(0.7036 0 0 -0.7036 625.5444 422.2939)" overflow="visible"/>
			
				<use xlink:href="#New_Symbol"  width="7.6" height="7.6" x="-3.8" y="-3.8" transform="matrix(0.8257 0 0 -0.8257 667.8641 370.3287)" overflow="visible"/>
			
				<use xlink:href="#New_Symbol"  width="7.6" height="7.6" x="-3.8" y="-3.8" transform="matrix(0.9804 0 0 -0.9804 681.4765 447.9677)" overflow="visible"/>
			
				<use xlink:href="#New_Symbol"  width="7.6" height="7.6" x="-3.8" y="-3.8" transform="matrix(0.7265 0 0 -0.7265 634.0966 534.9971)" overflow="visible"/>
			
				<use xlink:href="#New_Symbol"  width="7.6" height="7.6" x="-3.8" y="-3.8" transform="matrix(1.1544 0 0 -1.1544 529.1115 541.6951)" overflow="visible"/>
			
				<use xlink:href="#New_Symbol"  width="7.6" height="7.6" x="-3.8" y="-3.8" transform="matrix(0.8216 0 0 -0.8216 514.0496 460.1054)" overflow="visible"/>
			
				<use xlink:href="#New_Symbol"  width="7.6" height="7.6" x="-3.8" y="-3.8" transform="matrix(1.2036 0 0 -1.2036 442.3383 370.5495)" overflow="visible"/>
			
				<use xlink:href="#New_Symbol"  width="7.6" height="7.6" x="-3.8" y="-3.8" transform="matrix(0.8196 0 0 -0.8196 391.3303 464.7514)" overflow="visible"/>
			
				<use xlink:href="#New_Symbol"  width="7.6" height="7.6" x="-3.8" y="-3.8" transform="matrix(1.022 0 0 -1.022 366.4045 518.1149)" overflow="visible"/>
			
				<use xlink:href="#New_Symbol"  width="7.6" height="7.6" x="-3.8" y="-3.8" transform="matrix(0.7079 0 0 -0.7079 273.7521 528.9664)" overflow="visible"/>
			
				<use xlink:href="#New_Symbol"  width="7.6" height="7.6" x="-3.8" y="-3.8" transform="matrix(0.5918 0 0 -0.5918 221.9046 438.8907)" overflow="visible"/>
			
				<use xlink:href="#New_Symbol"  width="7.6" height="7.6" x="-3.8" y="-3.8" transform="matrix(0.9511 0 0 -0.9511 137.3177 402.5724)" overflow="visible"/>
			
				<use xlink:href="#New_Symbol"  width="7.6" height="7.6" x="-3.8" y="-3.8" transform="matrix(0.8344 0 0 -0.8344 123.3172 493.9213)" overflow="visible"/>
			
				<use xlink:href="#New_Symbol"  width="7.6" height="7.6" x="-3.8" y="-3.8" transform="matrix(0.8946 0 0 -0.8946 143.1676 507.2099)" overflow="visible"/>
			
				<use xlink:href="#New_Symbol"  width="7.6" height="7.6" x="-3.8" y="-3.8" transform="matrix(0.8516 0 0 -0.8516 83.9381 435.9959)" overflow="visible"/>
			
				<use xlink:href="#New_Symbol"  width="7.6" height="7.6" x="-3.8" y="-3.8" transform="matrix(0.8695 0 0 -0.8695 -0.8721 513.0383)" overflow="visible"/>
			
				<use xlink:href="#New_Symbol"  width="7.6" height="7.6" x="-3.8" y="-3.8" transform="matrix(0.962 0 0 -0.962 18.4235 528.7925)" overflow="visible"/>
			
				<use xlink:href="#New_Symbol"  width="7.6" height="7.6" x="-3.8" y="-3.8" transform="matrix(0.8705 0 0 -0.8705 5.5872 401.2805)" overflow="visible"/>
			
				<use xlink:href="#New_Symbol"  width="7.6" height="7.6" x="-3.8" y="-3.8" transform="matrix(1.19 0 0 -1.19 -96.8712 444.622)" overflow="visible"/>
			
				<use xlink:href="#New_Symbol"  width="7.6" height="7.6" x="-3.8" y="-3.8" transform="matrix(0.6515 0 0 -0.6515 -43.2831 506.4594)" overflow="visible"/>
			
				<use xlink:href="#New_Symbol"  width="7.6" height="7.6" x="-3.8" y="-3.8" transform="matrix(0.888 0 0 -0.888 -21.0639 371.502)" overflow="visible"/>
			
				<use xlink:href="#New_Symbol"  width="7.6" height="7.6" x="-3.8" y="-3.8" transform="matrix(0.6332 0 0 -0.6332 -102.1455 315.0205)" overflow="visible"/>
			
				<use xlink:href="#New_Symbol"  width="7.6" height="7.6" x="-3.8" y="-3.8" transform="matrix(0.6796 0 0 -0.6796 -104.4221 299.5455)" overflow="visible"/>
			
				<use xlink:href="#New_Symbol"  width="7.6" height="7.6" x="-3.8" y="-3.8" transform="matrix(0.6834 0 0 -0.6834 -109.6868 220.4519)" overflow="visible"/>
			
				<use xlink:href="#New_Symbol"  width="7.6" height="7.6" x="-3.8" y="-3.8" transform="matrix(0.639 0 0 -0.639 -70.8068 141.0126)" overflow="visible"/>
			
				<use xlink:href="#New_Symbol"  width="7.6" height="7.6" x="-3.8" y="-3.8" transform="matrix(0.4054 0 0 -0.4054 -51.4594 93.9557)" overflow="visible"/>
			
				<use xlink:href="#New_Symbol"  width="7.6" height="7.6" x="-3.8" y="-3.8" transform="matrix(0.4444 0 0 -0.4444 -20.1709 74.4893)" overflow="visible"/>
			
				<use xlink:href="#New_Symbol"  width="7.6" height="7.6" x="-3.8" y="-3.8" transform="matrix(1.0293 0 0 -1.0293 30.9414 193.1467)" overflow="visible"/>
			
				<use xlink:href="#New_Symbol"  width="7.6" height="7.6" x="-3.8" y="-3.8" transform="matrix(0.9366 0 0 -0.9366 113.7628 240.0369)" overflow="visible"/>
			
				<use xlink:href="#New_Symbol"  width="7.6" height="7.6" x="-3.8" y="-3.8" transform="matrix(0.9865 0 0 -0.9865 140.793 356.6466)" overflow="visible"/>
			
				<use xlink:href="#New_Symbol"  width="7.6" height="7.6" x="-3.8" y="-3.8" transform="matrix(0.8829 0 0 -0.8829 140.9866 465.424)" overflow="visible"/>
			
				<use xlink:href="#New_Symbol"  width="7.6" height="7.6" x="-3.8" y="-3.8" transform="matrix(0.626 0 0 -0.626 205.6935 491.9451)" overflow="visible"/>
			
				<use xlink:href="#New_Symbol"  width="7.6" height="7.6" x="-3.8" y="-3.8" transform="matrix(0.8357 0 0 -0.8357 253.0902 347.3074)" overflow="visible"/>
			
				<use xlink:href="#New_Symbol"  width="7.6" height="7.6" x="-3.8" y="-3.8" transform="matrix(0.7855 0 0 -0.7855 309.0595 328.2032)" overflow="visible"/>
			
				<use xlink:href="#New_Symbol"  width="7.6" height="7.6" x="-3.8" y="-3.8" transform="matrix(0.6425 0 0 -0.6425 291.516 484.027)" overflow="visible"/>
			
				<use xlink:href="#New_Symbol"  width="7.6" height="7.6" x="-3.8" y="-3.8" transform="matrix(0.8324 0 0 -0.8324 417.8236 476.5769)" overflow="visible"/>
			
				<use xlink:href="#New_Symbol"  width="7.6" height="7.6" x="-3.8" y="-3.8" transform="matrix(0.6913 0 0 -0.6913 482.207 468.1821)" overflow="visible"/>
			
				<use xlink:href="#New_Symbol"  width="7.6" height="7.6" x="-3.8" y="-3.8" transform="matrix(0.9678 0 0 -0.9678 570.489 499.871)" overflow="visible"/>
			
				<use xlink:href="#New_Symbol"  width="7.6" height="7.6" x="-3.8" y="-3.8" transform="matrix(0.9787 0 0 -0.9787 663.7279 463.9141)" overflow="visible"/>
			
				<use xlink:href="#New_Symbol"  width="7.6" height="7.6" x="-3.8" y="-3.8" transform="matrix(1.1229 0 0 -1.1229 728.9851 443.3881)" overflow="visible"/>
			
				<use xlink:href="#New_Symbol"  width="7.6" height="7.6" x="-3.8" y="-3.8" transform="matrix(0.7316 0 0 -0.7316 671.2186 312.2075)" overflow="visible"/>
			
				<use xlink:href="#New_Symbol"  width="7.6" height="7.6" x="-3.8" y="-3.8" transform="matrix(0.7611 0 0 -0.7611 452.2081 295.9379)" overflow="visible"/>
			
				<use xlink:href="#New_Symbol"  width="7.6" height="7.6" x="-3.8" y="-3.8" transform="matrix(0.5878 0 0 -0.5878 430.256 235.9169)" overflow="visible"/>
			
				<use xlink:href="#New_Symbol"  width="7.6" height="7.6" x="-3.8" y="-3.8" transform="matrix(0.6061 0 0 -0.6061 494.6681 207.5305)" overflow="visible"/>
			
				<use xlink:href="#New_Symbol"  width="7.6" height="7.6" x="-3.8" y="-3.8" transform="matrix(0.858 0 0 -0.858 529.3212 246.8061)" overflow="visible"/>
			
				<use xlink:href="#New_Symbol"  width="7.6" height="7.6" x="-3.8" y="-3.8" transform="matrix(0.8278 0 0 -0.8278 622.0878 220.8229)" overflow="visible"/>
			
				<use xlink:href="#New_Symbol"  width="7.6" height="7.6" x="-3.8" y="-3.8" transform="matrix(1.0195 0 0 -1.0195 700.2821 265.785)" overflow="visible"/>
			
				<use xlink:href="#New_Symbol"  width="7.6" height="7.6" x="-3.8" y="-3.8" transform="matrix(1.1309 0 0 -1.1309 721.6525 247.2823)" overflow="visible"/>
			
				<use xlink:href="#New_Symbol"  width="7.6" height="7.6" x="-3.8" y="-3.8" transform="matrix(1.1211 0 0 -1.1211 747.4355 236.6061)" overflow="visible"/>
			
				<use xlink:href="#New_Symbol"  width="7.6" height="7.6" x="-3.8" y="-3.8" transform="matrix(0.6858 0 0 -0.6858 -88.1924 555.9785)" overflow="visible"/>
			
				<use xlink:href="#New_Symbol"  width="7.6" height="7.6" x="-3.8" y="-3.8" transform="matrix(0.7321 0 0 -0.7321 -87.7588 567.1447)" overflow="visible"/>
			
				<use xlink:href="#New_Symbol"  width="7.6" height="7.6" x="-3.8" y="-3.8" transform="matrix(0.6363 0 0 -0.6363 -40.2039 566.9495)" overflow="visible"/>
			
				<use xlink:href="#New_Symbol"  width="7.6" height="7.6" x="-3.8" y="-3.8" transform="matrix(1.0653 0 0 -1.0653 4.4506 586.4252)" overflow="visible"/>
			
				<use xlink:href="#New_Symbol"  width="7.6" height="7.6" x="-3.8" y="-3.8" transform="matrix(1.0658 0 0 -1.0658 160.2197 586.7458)" overflow="visible"/>
			
				<use xlink:href="#New_Symbol"  width="7.6" height="7.6" x="-3.8" y="-3.8" transform="matrix(0.8891 0 0 -0.8891 224.1342 578.2271)" overflow="visible"/>
			
				<use xlink:href="#New_Symbol"  width="7.6" height="7.6" x="-3.8" y="-3.8" transform="matrix(1.1413 0 0 -1.1413 323.4667 591.7435)" overflow="visible"/>
			
				<use xlink:href="#New_Symbol"  width="7.6" height="7.6" x="-3.8" y="-3.8" transform="matrix(1.149 0 0 -1.149 400.7039 575.1492)" overflow="visible"/>
			
				<use xlink:href="#New_Symbol"  width="7.6" height="7.6" x="-3.8" y="-3.8" transform="matrix(0.8749 0 0 -0.8749 584.6683 566.9675)" overflow="visible"/>
			
				<use xlink:href="#New_Symbol"  width="7.6" height="7.6" x="-3.8" y="-3.8" transform="matrix(0.7215 0 0 -0.7215 634.0085 573.715)" overflow="visible"/>
			
				<use xlink:href="#New_Symbol"  width="7.6" height="7.6" x="-3.8" y="-3.8" transform="matrix(0.759 0 0 -0.759 691.3249 539.5861)" overflow="visible"/>
			
				<use xlink:href="#New_Symbol"  width="7.6" height="7.6" x="-3.8" y="-3.8" transform="matrix(1.078 0 0 -1.078 720.4545 563.6244)" overflow="visible"/>
			
				<use xlink:href="#New_Symbol"  width="7.6" height="7.6" x="-3.8" y="-3.8" transform="matrix(1.1816 0 0 -1.1816 754.9957 158.733)" overflow="visible"/>
			
				<use xlink:href="#New_Symbol"  width="7.6" height="7.6" x="-3.8" y="-3.8" transform="matrix(1.1924 0 0 -1.1924 -128.0549 82.5111)" overflow="visible"/>
		</g>
	</g>
</g>
<g id="Capa_2">
</g>
</svg>
